<?xml version="1.0" encoding="UTF-8"?>
<svg id="Layer_1" xmlns="http://www.w3.org/2000/svg" version="1.1" viewBox="0 0 512.46 647.4">
  <!-- Generator: Adobe Illustrator 29.3.1, SVG Export Plug-In . SVG Version: 2.1.0 Build 151)  -->
  <defs>
    <style>
      .st0 {
        fill: #0d1f22;
      }

      .st1 {
        fill: #fff;
      }

      .st2 {
        display: none;
      }
    </style>
  </defs>
  <g class="st2">
    <path class="st1" d="M652.23-70.35v792H-139.77V-70.35h792ZM453.43,60.34C411.23,24.84,323.15,1.12,270.96,22.57c-25.52,10.49-40.74,30.47-51.18,55.31-2.02,4.8-3.61,9.79-5.5,14.64-8.87.46-17.79.17-26.64.7-33.61,2.02-71.55,11.07-98.33,30.69-29.05,21.29-45.71,39.3-63.09,69.9-6.29,11.07-13.67,21.48-19.12,33.07-4.34,9.21-12.7,28.74-13.94,38.35-.14,1.06-.22,3.29-.04,4.28.39,2.09,2.5.88,3.91.98.71.05,1.45.52,2.15.53,3.08.05,6.72-.62,9.93-.39,4.54-5.02,8.29-10.83,13.33-15.44,2.98-2.73,6.06-4.74,9.5-6.82,1.1-.66,1.5-2.15,3.38-1.65-7.88,16.34-15.17,33.01-20.75,50.48-13.3,41.65-15.28,83.03-2.62,125.19l6.9,19.11c5.33.6,10.64.31,15.99-.03-.46-7.36-.91-12.59,1.09-19.77,1.85-6.61,5.08-13.35,9.45-18.61-1.95,17.84.38,35.05,5.04,52.29,8.35,30.95,24.51,57.6,35.28,87.52,7.42,20.62,19.05,60.2,7.13,79.97-2.43,4.03-8.9,8.86-10.13,13.01-.39,1.33-.69,3.57-.31,4.85.28.93,1.27.27,1.33.36.15.24-.1.99.13,1.26.74.86,14.77.76,16.89.54,16.55-1.75,45.68-22.76,56.43-35.33,1.5-1.76,3.35-4.24,4.32-6.35.7-.47,4.45,5.85,4.86,6.4,6.34,8.42,12.22,17.26,18.09,26.06.32.48.49,1.03.56,1.6l1.9-.47-.94,1.17c3.2,4.6,5.94,10.21,9.43,14.54.78.97,2.05,2.37,3.29,2.49,2.85-.62,13.39.95,14.96-.57.81-.78,3.06-6.55,4.04-8.19,6.56-10.96,18.9-23.15,28.69-31.27.89-.74,2.01-1.66,3.06-2.12.65.11,3.63,4.46,4.26,5.37,9.34,13.4,17.2,29.38,26.05,42.53.24.35,1.74,2.3,1.9,2.43,1.53,1.28,12.55.1,15.28.42,1.17-.39,1.49-4.73,2-6.16,3.15-8.78,8.67-17.27,12.88-25.5,4.82-9.42,9.72-21.33,15.74-29.83.48-.67,1.16-1.73,2.07-1.75,1.37-.04,5.94,4.27,7.2,5.27,5.01,3.96,10.29,8.53,15.82,12,16.36,10.28,49.85,24.4,69.05,21.52,2.74-.41,2.76-3.59,2.1-5.85-.35-1.21-3.26-4.41-3.94-5.66-5.17-9.48-9.95-34.18-8.91-44.81.12-1.23,2.27-11.28,2.61-11.78.45-.64,1.71-.52,2.43-.49,5.31.18,11.29,1.34,16.77,1.49,11.2.31,21.98-.26,32.87-2.91-.52-2.08.28-4.2-.95-5.99-.95-1.38-2.13-1.36-3.09-2.18-12.89-11.07-22.97-24.55-21.39-42.92,1.16-13.46,17.26-33.32,24.39-45.17,15.56-25.88,24.44-57.72,16.26-87.55-1.92-7-5.36-13.51-7.97-19.95-.38-.95-.6-2.43-1-3.45l7.38,6.77,9.88,13.62c4.96.35,10.11.85,15.05.54.41-.02,1.17-.17,1.28-.62l-1.46-42.13c-2.64-27.03-11.64-50.22-25.46-72.35-3.05-4.89-6.52-9.58-9.55-14.49-.16-1.04.15-.56.69-.72,5.02-1.54,8.34-.26,12.26-5.02,14.59-17.75.9-42.26-9.22-58.42-1.17-1.86-6.52-8.43-6.6-9.73,6.31-20.66,13.61-42.84,12.48-64.75-.1-1.94-1.62-16.54-2.2-17.49-.23-.37-.99-.39-1.11-.54-.1-.12.53-1.82.38-3.03-1.27-10.72-14.2-24.47-22.24-31.23Z"/>
    <path d="M453.43,60.34c8.04,6.76,20.97,20.51,22.24,31.23.14,1.21-.48,2.91-.38,3.03.12.15.89.16,1.11.54.58.96,2.1,15.55,2.2,17.49,1.13,21.92-6.18,44.09-12.48,64.75.09,1.29,5.44,7.86,6.6,9.73,10.12,16.16,23.81,40.67,9.22,58.42-3.92,4.77-7.24,3.48-12.26,5.02-.53.16-.85-.32-.69.72,3.02,4.91,6.49,9.6,9.55,14.49,13.82,22.13,22.82,45.32,25.46,72.35l1.46,42.13c-.11.45-.88.6-1.28.62-4.94.3-10.09-.19-15.05-.54l-9.88-13.62-7.38-6.77c.41,1.03.62,2.5,1,3.45,2.6,6.44,6.05,12.96,7.97,19.95,8.18,29.83-.7,61.67-16.26,87.55-7.13,11.85-23.23,31.71-24.39,45.17-1.58,18.37,8.5,31.85,21.39,42.92.96.82,2.13.8,3.09,2.18,1.23,1.79.43,3.91.95,5.99-10.88,2.65-21.67,3.22-32.87,2.91-5.48-.15-11.46-1.31-16.77-1.49-.72-.02-1.97-.15-2.43.49-.35.49-2.49,10.55-2.61,11.78-1.04,10.63,3.74,35.33,8.91,44.81.68,1.24,3.58,4.45,3.94,5.66.66,2.25.64,5.43-2.1,5.85-19.2,2.88-52.68-11.25-69.05-21.52-5.53-3.47-10.81-8.04-15.82-12-1.27-1-5.83-5.31-7.2-5.27-.91.02-1.59,1.08-2.07,1.75-6.01,8.51-10.92,20.42-15.74,29.83-4.21,8.23-9.72,16.72-12.88,25.5-.51,1.42-.82,5.76-2,6.16-2.73-.32-13.75.86-15.28-.42-.16-.13-1.66-2.08-1.9-2.43-8.85-13.15-16.71-29.13-26.05-42.53-.63-.91-3.61-5.26-4.26-5.37-1.05.46-2.17,1.38-3.06,2.12-9.79,8.12-22.13,20.31-28.69,31.27-.98,1.63-3.23,7.41-4.04,8.19-1.58,1.52-12.12-.05-14.96.57-1.24-.12-2.51-1.52-3.29-2.49-3.49-4.33-6.23-9.94-9.43-14.54l.94-1.17-1.9.47c-.07-.57-.24-1.12-.56-1.6-5.87-8.79-11.75-17.63-18.09-26.06-.42-.55-4.16-6.87-4.86-6.4-.97,2.11-2.81,4.59-4.32,6.35-10.75,12.56-39.88,33.58-56.43,35.33-2.11.22-16.15.33-16.89-.54-.23-.27.02-1.01-.13-1.26-.06-.09-1.05.57-1.33-.36-.38-1.28-.08-3.52.31-4.85,1.22-4.14,7.7-8.98,10.13-13.01,11.92-19.77.3-59.34-7.13-79.97-10.77-29.92-26.94-56.57-35.28-87.52-4.65-17.25-6.99-34.46-5.04-52.29-4.37,5.26-7.61,11.99-9.45,18.61-2.01,7.19-1.56,12.41-1.09,19.77-5.35.34-10.67.63-15.99.03l-6.9-19.11c-12.66-42.17-10.68-83.54,2.62-125.19,5.58-17.47,12.87-34.14,20.75-50.48-1.88-.51-2.29.99-3.38,1.65-3.45,2.08-6.52,4.1-9.5,6.82-5.04,4.61-8.79,10.42-13.33,15.44-3.2-.23-6.85.44-9.93.39-.7-.01-1.45-.48-2.15-.53-1.42-.1-3.52,1.1-3.91-.98-.18-.99-.1-3.22.04-4.28,1.24-9.61,9.6-29.14,13.94-38.35,5.45-11.59,12.83-21.99,19.12-33.07,17.38-30.61,34.04-48.61,63.09-69.9,26.78-19.62,64.72-28.68,98.33-30.69,8.85-.53,17.77-.25,26.64-.7,1.89-4.85,3.49-9.84,5.5-14.64,10.44-24.84,25.66-44.82,51.18-55.31,52.19-21.45,140.27,2.27,182.47,37.77ZM442.43,68.44c-19.15-19.85-58.55-39.48-85.95-42.37-37.88-3.99-79.19.2-103.28,32.47-12.13,16.25-16.56,31.13-23.85,49.55-1.75,4.43-5.61,9.97-4.91,15.01.82,5.92,10.7,22.59,14.2,28.5,12.93,21.86,30.72,40.48,51.74,54.76,19.85,13.49,51.48,21.8,74.97,26.73,26.86,5.64,56.27,12.42,83.75,10.32,3.24-.25,11.25-1.31,13.52-3.52.1-.09,1.4-1.96,1.53-2.18,8.82-15.2,1.19-24.95-5.9-38.03-2.32-4.28-4.43-8.75-6.51-13.16-1.11-.74-11.78,1.45-14.18,1.69-56.92,5.72-123.31-25.16-173.72-49.34-1.65-.79-11.62-4.69-11.7-5.63l2.23-5.51c5.76,1.84,12.3,2.98,17.93,5.08,8,2.98,15.59,7.62,23.34,11.2s17.7,7.05,24.52,10.98c.84.48,1.06,1.43,1.14,1.48.12.06,1.01-.43,1.85-.21,3.25.85,8.98,3.93,12.49,5.31,33.97,13.42,55.8,19.99,93.23,15.54,5.57-.66,11.15-2.9,16.79-1.89.63-.17,3.32-8.68,3.79-10.14,9.78-30.17,17.26-71.46-7.02-96.64ZM208.98,104.75c-14.88-2.07-30.06.24-44.62,3.59-7.04,1.62-13.95,4.29-21.08,5.07-.35,3.33-.85,7.04-.91,10.36s.75,7.26.41,10.49c-.19,1.76-1.3,3.32-.99,5.19.41,1.67,17.78,4.43,20.42,4.64,1.74.14,9.48-.58,9.81.76l-8.13,36.66,44.89,1.41-3.66,37.23c12.04,1.96,24.28.88,36.43,1.23,1.45,4.95-.19,10.09-.42,15.06-.44,9.26-.22,18.56-.97,27.79-.03.45.97.36,1.2.28.32-.1,3.97-4.29,4.8-4.82,9.9-8.45,19.79-19.51,27.28-30.26.81-1.17,6.92-10.46,6.54-10.98-15.92-8.1-28.97-23.38-39.25-37.75-10.79-15.08-21.69-33.52-30.87-49.72-1.24-2.19-5.76-9.41-6.07-11.24-.62-3.71,5.65-14.34,5.19-14.99ZM98.64,201.64l3.76-32.97-.66-1.06c-10.93,1.99-22.22.13-33.19,1.29-2.43,2.35-4.77,4.85-7.06,7.34-2.95,3.21-6.34,7.1-9.36,10.78-3.65,4.45-7.05,9.1-10.57,13.65,6.97-.02,14.05-.15,20.88,1.43,1.97,3.3.91,7.19,1.19,10.8.69,9.03,1.82,18.07,2.4,27.1.48.5,5.85-.38,6.95-.38,6.04.02,14.3,1.02,20.17.31,1.21-.15,2.18-1.21,3.58-.89l2.39,20.88c1,.6,1.93,1.06,3.11,1.2,3.59.43,21.26-.83,22.68.58.44.44.57,1.36.55,1.98-1.35,9.28-1.87,18.69-2.29,28.06.6.96,9.38.44,11.2.55,4.96.3,10.47,1.33,15.38,1.45,2,.05,5.91-2.78,7.7-4.05,3.61-2.55,6.75-6.03,10.43-8.54l21.91-20.29c.83-2.54-2.93-.35-3.64-.27-3.38.39-8.6.55-12.14.7-5.46.24-10.03,1.75-10.35-5.23s1.23-13.75,1.15-20.61c-.03-2.48.06-4.98.02-7.46l-33.6-.2-3.79-25.01-28.82-1.17ZM364.23,304.47c-19.72-21.11-32.97-46.77-44.69-73.08l-23.09-6.22-1.64.68c-14.68,24.37-35.36,45.24-59.36,60.09-7.05,4.37-15.72,9.27-23.03,13.07-2.53,1.32-9.01,4.92-11.41,5.25-4.87.68-10.61-1.49-15.55-1.39-1.24-5.63,2.83-6.36,4.67-10.93,1.4-3.5,2.43-8.91,3.14-12.7.12-.63.9-.94-.36-.84-15.46,15.71-32.45,27.45-52.91,35.89-8.58,3.54-17.59,6.3-26.27,9.67-6.25,2.42-15.39,7.84-21.89,8.33-3.57.27-15.97-1.7-19.41-2.98-.57-.21-.73.23-.69-.77.17-3.96,3.48-3.9,6.1-5.44,10.9-6.41,13.09-18.94,16.45-30.27-1.63-1.03-3.08-.02-4.49-.08-.87-.03-1.79-.44-2.91-.46-11.71-.2-22.92,2.08-34.35,4.14-1.26-.83-5.36-25.37-6.64-29.35-.29-.92-.17-2.45-1.49-2.1-3.09,7.23-5.8,14.59-8.5,21.96-.2.54-.9.61-.94.7-.93,2.62-4.05,12.27-4.04,14.52,0,2.6,5.69,17.78,7,21.33,2.13,5.77,4.84,11.38,6.73,17.25l.68.76c7.68.66,15.59.27,23.29.69,3.85.21,10.3.29,13.79,1.08,1.32.3,5.75,4.76,6.01,6.02.38,1.84-3.4,5.73-4.41,7.38-18.2,29.8-27.77,50.01-19.84,85.91,8.73,39.54,30.71,72.05,42.21,110.34,5.86,19.51,12.24,49.9,4.68,69.22l-4.32,7.9,13.56-9.22c5.49-3.44,10.75-7.41,15.47-11.87,1.95-1.84,4.77-6.04,6.71-7.25.56-.35,1.16.1,1.2.05.11-.17-.39-.85-.05-1.7.54-1.34,1.97-1.78,2.3-2.28.35-.53.31-1.33.7-1.93,2.57-3.99,5.25-7.95,7.92-11.86,5.2.43,10.72-.51,15.88.62.21.52.26,1.07.58,1.55,9.19,13.63,18.38,27.25,27.55,40.59,1.86,2.71,3.88,5.54,5.1,8.58,1.41.97,3.26-2.92,4.05-3.82,5.33-6.12,11.36-12.72,17.42-18.19,3.54-3.19,14.45-12.7,18.59-13.44,2.51-.44,11.65-.34,14.36-.03,3.42.39,6.66,4.98,8.6,7.71,4.29,6.03,8.62,13.2,12.66,19.48,2.39,3.73,4.94,9.3,7.55,12.6.45.56.79,1.15,1.65.99.31-2.24,1.65-4.59,2.7-6.66,2.1-4.15,4.4-8.21,6.48-12.23,6.22-12.05,11.85-24.15,20.35-34.81,2.47-2.23,13.43-.29,17.14-.98,11.6,7.58,21.96,18.29,33.77,25.34,10.18,6.07,21.92,11.5,33.25,14.95-4.1-12.05-7.43-24.92-8.07-37.73-.53-10.5,2.46-20.81,5.27-30.8,4.58.45,11.18-.85,15.5-.05,2.07.38,6.38,3.62,9.47,4.44,6.24,1.65,14.25,2.25,20.53.81-3.66-3.73-7.32-6.58-10.58-10.79-8.64-11.11-12.19-24.47-10.56-38.86,1.77-15.65,16.84-33.09,24.91-46.6,9.62-16.1,19.56-42.46,18.8-61.35-.66-16.5-8.75-36.73-16.73-50.91-1.98-3.52-7.68-9.2-1.23-11.66,4.52.58,9.66-.67,14.11.23,2.74.55,5.9,2.34,8.51,3.45,2.16.92,5.18,2.1,7.66,3.4.97.51,7.88,5.35,8.29,4.89-.47-27.88-7.49-54.44-21.68-78.33-3.14-5.28-6.92-11.59-10.17-16.52-.11-.17-.65-.28-.93-.71-1.3-1.97-3-5.32-4.44-7.05-.32-.38-.63-.67-1.13-.79-6.31-.34-12.67-.27-18.97-.69-27.61-1.85-51.59-6.58-78.54-11.65-3.98-.75-7.96-1.78-11.89-2.74-.13.8.23,1.41.53,2.11,10.72,24.51,29.39,53.07,50.83,69.1,2.05,1.53,4.5,2.87,6.45,4.59-.34-7.69-1.42-15.45-1.06-23.13.17-3.62.66-12.92,1.6-16.1.28-.94,1.02-1.97,1.63-2.75l9.11-8.63c1.16-.93,5.41,1.66,5.68,2.5-.21,5.57-1.69,11.33-2.06,16.87-.65,9.89.23,28.82,3.21,38.07,1.1,3.41,3.85,6.13,4.58,9.67l-12.83,8.23c-5.26-2.73-10.77-5.9-15.83-9.17-10.63-6.88-19.41-13.83-28.03-23.06ZM20.92,363.79l-.95.24c.15,13.78.8,27.87,5.04,41.01,3.06-4.42,5.83-9.14,9.37-13.17,2.38-2.71,5.1-5.19,7.71-7.62,2.33-2.16,5.37-3.34,6.18-7.03-1.17-1.01-14.28,3.18-16.31,2.17-.52-.26-5.36-6.68-6.15-7.77-1.74-2.37-3.45-5.25-4.89-7.83Z"/>
    <path class="st1" d="M364.23,304.47c8.62,9.23,17.4,16.18,28.03,23.06,5.06,3.27,10.56,6.44,15.83,9.17l12.83-8.23c-.73-3.54-3.48-6.26-4.58-9.67-2.97-9.25-3.86-28.18-3.21-38.07.36-5.54,1.84-11.3,2.06-16.87-.27-.84-4.52-3.43-5.68-2.5l-9.11,8.63c-.61.78-1.35,1.81-1.63,2.75-.95,3.18-1.44,12.48-1.6,16.1-.36,7.67.72,15.44,1.06,23.13-1.95-1.72-4.4-3.05-6.45-4.59-21.44-16.03-40.11-44.59-50.83-69.1-.3-.69-.66-1.31-.53-2.11,3.93.96,7.91,1.99,11.89,2.74,26.95,5.06,50.92,9.8,78.54,11.65,6.31.42,12.66.35,18.97.69.49.13.81.41,1.13.79,1.44,1.73,3.14,5.08,4.44,7.05.28.42.82.54.93.71,3.25,4.93,7.03,11.24,10.17,16.52,14.19,23.89,21.21,50.46,21.68,78.33-.42.45-7.33-4.39-8.29-4.89-2.48-1.3-5.49-2.48-7.66-3.4-2.61-1.11-5.77-2.9-8.51-3.45-4.44-.9-9.59.34-14.11-.23-6.44,2.46-.75,8.14,1.23,11.66,7.98,14.18,16.07,34.41,16.73,50.91.76,18.88-9.18,45.25-18.8,61.35-8.07,13.51-23.13,30.95-24.91,46.6-1.63,14.39,1.92,27.75,10.56,38.86,3.27,4.2,6.92,7.06,10.58,10.79-6.28,1.43-14.29.84-20.53-.81-3.09-.82-7.4-4.05-9.47-4.44-4.33-.8-10.92.49-15.5.05-2.81,9.99-5.79,20.31-5.27,30.8.64,12.81,3.97,25.68,8.07,37.73-11.34-3.45-23.08-8.88-33.25-14.95-11.81-7.04-22.17-17.76-33.77-25.34-3.71.69-14.67-1.26-17.14.98-8.5,10.66-14.13,22.77-20.35,34.81-2.08,4.03-4.38,8.08-6.48,12.23-1.05,2.07-2.39,4.42-2.7,6.66-.86.17-1.2-.42-1.65-.99-2.61-3.3-5.16-8.87-7.55-12.6-4.03-6.28-8.36-13.46-12.66-19.48-1.94-2.73-5.18-7.32-8.6-7.71-2.71-.31-11.85-.42-14.36.03-4.14.73-15.05,10.24-18.59,13.44-6.06,5.46-12.09,12.07-17.42,18.19-.78.9-2.64,4.79-4.05,3.82-1.22-3.04-3.24-5.86-5.1-8.58-9.17-13.34-18.35-26.96-27.55-40.59-.32-.48-.37-1.04-.58-1.55-5.16-1.12-10.68-.18-15.88-.62-2.68,3.91-5.35,7.88-7.92,11.86-.39.6-.35,1.4-.7,1.93s-1.76.94-2.3,2.28c-.35.85.15,1.53.05,1.7-.03.05-.64-.4-1.2-.05-1.94,1.22-4.75,5.41-6.71,7.25-4.72,4.46-9.98,8.43-15.47,11.87l-13.56,9.22,4.32-7.9c7.56-19.31,1.18-49.7-4.68-69.22-11.5-38.28-33.48-70.79-42.21-110.34-7.93-35.9,1.64-56.11,19.84-85.91,1.01-1.66,4.79-5.54,4.41-7.38-.26-1.26-4.69-5.72-6.01-6.02-3.49-.78-9.95-.87-13.79-1.08-7.71-.42-15.62-.03-23.29-.69l-.68-.76c-1.89-5.87-4.61-11.48-6.73-17.25-1.31-3.56-6.99-18.74-7-21.33,0-2.25,3.11-11.91,4.04-14.52.03-.09.74-.16.94-.7,2.69-7.36,5.4-14.73,8.5-21.96,1.32-.35,1.19,1.18,1.49,2.1,1.28,3.99,5.38,28.52,6.64,29.35,11.43-2.06,22.64-4.34,34.35-4.14,1.12.02,2.03.43,2.91.46,1.41.06,2.86-.95,4.49.08-3.36,11.33-5.55,23.87-16.45,30.27-2.62,1.54-5.93,1.48-6.1,5.44-.04,1,.12.56.69.77,3.44,1.28,15.84,3.26,19.41,2.98,6.5-.5,15.64-5.91,21.89-8.33,8.68-3.36,17.68-6.13,26.27-9.67,20.45-8.43,37.45-20.17,52.91-35.89,1.26-.1.48.21.36.84-.7,3.78-1.74,9.2-3.14,12.7-1.83,4.57-5.9,5.3-4.67,10.93,4.95-.1,10.68,2.07,15.55,1.39,2.4-.33,8.88-3.94,11.41-5.25,7.31-3.81,15.98-8.71,23.03-13.07,24-14.85,44.68-35.72,59.36-60.09l1.64-.68,23.09,6.22c11.71,26.31,24.97,51.97,44.69,73.08ZM316.7,324.23c-8.18,5.99-7.74,17.07.2,23.02,4.83,3.62,18.74,3.18,23.29-1.19,8.46-8.12,6.61-22.87-6.72-24.02-5.06-.44-12.79-.73-16.78,2.2ZM167.92,349.67c2.37,2.12,4.37,3.68,7.71,4.04,3.66.4,14.28.53,17.01-1.7,3.46-2.82,4.38-12.05,3.74-16.18-.44-2.8-4.22-9.09-6.95-9.84-.97-.27-3.53-.53-4.67-.61-2.62-.18-11.87-.38-13.67.76-1.45.92-4.49,3.27-3.38,5.02l-1.43-.96c-3.66,6.93-4.65,13.86,1.63,19.47ZM354.95,349.25c2.04,1.65,7.4.7,8.3-2.24,1.7-5.57-10.81-6.68-9.27.58.07.31.73,1.46.98,1.66ZM250.23,368.58h11.51c-.09,1.99.12,4.02.02,6.02-.56,11.67-.15,26.5,2.89,37.85,3.34,12.46,15.42,15.98,26.75,17.87,18.11,3.01,56.17,1.71,73.8-3.62,9.01-2.72,13.82-10.09,17.85-18.13,7.83-15.63,10.04-33.72,8.96-51.06l-15.61-.44c2.29,17.25,2.46,35.45-7.19,50.61-10.76,16.91-22.68,16.25-41.52,15.61-8.63-.29-17.65-.47-26.36-.99-7.45-.44-12.67-1.86-17.5-7.92-6-7.52-5.98-30.16-5.79-39.82.05-2.32,1.38-9.39.07-11.06-.98-1.25-8.29-.56-10.38-.65-10.01-.45-21.72-1.68-31.66-1-.59.04-2.48.15-2.64.82-.45,4.09.47,8.44.52,12.37.11,8.54.15,28.57-4.04,35.59-9.41,15.75-29.22,13.2-44.65,12.62-13.38-.5-21-.31-32.75-7.16-15.93-9.28-19.3-18.09-22.53-35.89-1.48-8.14-2.16-16.45-3.73-24.58l-.53-.38-15.55.4c.05,1.81-.1,3.64.06,5.46.93,10.36,3.84,29.59,7.54,39,8.08,20.53,29.95,28.48,50.66,29.44,15.12.7,34.88.86,49.93,0,18.64-1.07,29.46-10.99,31.4-29.53,1.09-10.37.18-21,.48-31.42ZM285.72,461.16c.95-5.22.26-3.31-2.83-5.08-7.06-4.04-14-9.52-20.99-13.55-4.73-2.72-8.23-2.24-13.61-1.78l-26.85,15.85-.48,3.61,10.57-.23,21.82-12.69c6.29,3.5,12.36,7.42,18.43,11.27.96.61,1.36,1.66,2.63,2.16,3,1.19,8.01.05,11.3.44ZM211.21,478.99c-2.16.73-2.96,6.46.91,7.08,3.47.56,6.88-.47,6.68-4.53-.14-2.89-5.55-3.24-7.59-2.55Z"/>
    <path class="st1" d="M442.43,68.44c24.28,25.17,16.79,66.47,7.02,96.64-.47,1.47-3.17,9.97-3.79,10.14-5.64-1-11.22,1.23-16.79,1.89-37.43,4.45-59.26-2.12-93.23-15.54-3.51-1.39-9.24-4.46-12.49-5.31-.84-.22-1.73.27-1.85.21-.08-.04-.3-.99-1.14-1.48-6.83-3.93-17.05-7.52-24.52-10.98s-15.33-8.22-23.34-11.2c-5.64-2.1-12.17-3.24-17.93-5.08l-2.23,5.51c.08.94,10.05,4.84,11.7,5.63,50.4,24.18,116.8,55.06,173.72,49.34,2.4-.24,13.07-2.43,14.18-1.69,2.07,4.41,4.19,8.88,6.51,13.16,7.09,13.08,14.72,22.84,5.9,38.03-.12.21-1.43,2.08-1.53,2.18-2.27,2.2-10.28,3.27-13.52,3.52-27.47,2.1-56.89-4.68-83.75-10.32-23.49-4.93-55.11-13.24-74.97-26.73-21.02-14.28-38.81-32.89-51.74-54.76-3.5-5.92-13.38-22.59-14.2-28.5-.7-5.04,3.16-10.58,4.91-15.01,7.29-18.41,11.72-33.3,23.85-49.55,24.09-32.27,65.41-36.46,103.28-32.47,27.4,2.89,66.8,22.52,85.95,42.37ZM374.31,88.6c-1.78-.74-12.66-3.8-13.88-3.45-2.41,1.82-9.81,12.56-12.13,12.89l-21.74-5.22-1.3,5.7c2.46,2.14,5.17,4.68,7.24,7.18.68.82,2.81,3.15,2.59,4l-14.54,11.89c-.88.94-2.52,5.17-1.99,6.18,1.36,1.2,3.63,1.68,5.44,2.26,8.41,2.72,12.66,3.22,21.37,1.97,2.93-.42,5.73-1.34,8.66-1.72,4.28,3.81,8.61,7.63,11.45,12.71l18.12,4.73c4.37-7.26-1.36-14.82-1.46-22.35l16.91-2.04c1.48-.55,2.96-4.58,2.68-5.78-.93-4-21.39-8.16-22.36-9.56-.28-.4-.24-1.92-.82-2.53-.2-3.84,1.1-11.35.14-14.77-.49-1.74-1.96-.67-3.3-1-.8-.2-.91-1.01-1.08-1.08Z"/>
    <path class="st1" d="M208.98,104.75c.46.65-5.82,11.27-5.19,14.99.31,1.83,4.83,9.04,6.07,11.24,9.18,16.2,20.08,34.63,30.87,49.72s23.33,29.66,39.25,37.75c.38.52-5.73,9.81-6.54,10.98-7.49,10.75-17.38,21.82-27.28,30.26-.83.52-4.47,4.71-4.8,4.82-.23.08-1.23.16-1.2-.28.75-9.22.53-18.53.97-27.79.24-4.98,1.88-10.11.42-15.06-12.15-.35-24.39.73-36.43-1.23l3.66-37.23-44.89-1.41,8.13-36.66c-.32-1.34-8.07-.62-9.81-.76-2.63-.21-20-2.96-20.42-4.64-.31-1.87.8-3.43.99-5.19.35-3.23-.47-7.12-.41-10.49s.56-7.03.91-10.36c7.13-.77,14.04-3.45,21.08-5.07,14.56-3.35,29.73-5.65,44.62-3.59Z"/>
    <path class="st1" d="M98.64,201.64l28.82,1.17,3.79,25.01,33.6.2c.04,2.48-.05,4.97-.02,7.46.08,6.86-1.46,13.67-1.15,20.61s4.89,5.47,10.35,5.23c3.54-.16,8.76-.31,12.14-.7.71-.08,4.47-2.27,3.64.27l-21.91,20.29c-3.68,2.51-6.82,5.99-10.43,8.54-1.79,1.26-5.7,4.1-7.7,4.05-4.91-.12-10.42-1.16-15.38-1.45-1.82-.11-10.6.41-11.2-.55.41-9.37.93-18.78,2.29-28.06.02-.62-.11-1.54-.55-1.98-1.42-1.41-19.09-.15-22.68-.58-1.19-.14-2.11-.6-3.11-1.2l-2.39-20.88c-1.4-.32-2.37.74-3.58.89-5.86.72-14.13-.28-20.17-.31-1.1,0-6.47.88-6.95.38-.58-9.04-1.71-18.08-2.4-27.1-.28-3.61.78-7.51-1.19-10.8-6.84-1.58-13.91-1.45-20.88-1.43,3.52-4.55,6.92-9.2,10.57-13.65,3.02-3.68,6.41-7.58,9.36-10.78,2.29-2.48,4.63-4.99,7.06-7.34,10.97-1.17,22.26.69,33.19-1.29l.66,1.06-3.76,32.97Z"/>
    <path class="st1" d="M20.92,363.79c1.44,2.58,3.15,5.46,4.89,7.83.8,1.09,5.63,7.51,6.15,7.77,2.03,1.02,15.14-3.18,16.31-2.17-.81,3.69-3.85,4.86-6.18,7.03-2.61,2.43-5.34,4.91-7.71,7.62-3.55,4.03-6.31,8.76-9.37,13.17-4.24-13.14-4.89-27.23-5.04-41.01l.95-.24Z"/>
    <path d="M250.23,368.58c-.31,10.42.6,21.05-.48,31.42-1.94,18.54-12.75,28.46-31.4,29.53-15.05.86-34.81.7-49.93,0-20.71-.97-42.58-8.91-50.66-29.44-3.7-9.41-6.61-28.64-7.54-39-.16-1.81-.02-3.64-.06-5.46l15.55-.4.53.38c1.57,8.13,2.25,16.44,3.73,24.58,3.24,17.79,6.6,26.61,22.53,35.89,11.75,6.85,19.37,6.66,32.75,7.16,15.44.58,35.24,3.13,44.65-12.62,4.19-7.01,4.15-27.05,4.04-35.59-.05-3.93-.97-8.28-.52-12.37.16-.67,2.05-.78,2.64-.82,9.94-.68,21.65.56,31.66,1,2.09.09,9.4-.59,10.38.65,1.31,1.67-.02,8.74-.07,11.06-.2,9.67-.21,32.31,5.79,39.82,4.84,6.06,10.06,7.48,17.5,7.92,8.71.51,17.73.69,26.36.99,18.84.64,30.76,1.3,41.52-15.61,9.65-15.16,9.48-33.36,7.19-50.61l15.61.44c1.08,17.34-1.13,35.43-8.96,51.06-4.03,8.04-8.84,15.41-17.85,18.13-17.62,5.33-55.69,6.63-73.8,3.62-11.33-1.88-23.41-5.41-26.75-17.87-3.04-11.34-3.45-26.18-2.89-37.85.1-1.99-.11-4.02-.02-6.02h-11.51Z"/>
    <path d="M167.92,349.67c-6.28-5.61-5.3-12.53-1.63-19.47l1.43.96c-1.11-1.75,1.93-4.09,3.38-5.02,1.8-1.14,11.05-.94,13.67-.76,1.14.08,3.7.34,4.67.61,2.73.75,6.51,7.04,6.95,9.84.64,4.12-.28,13.35-3.74,16.18-2.73,2.23-13.35,2.1-17.01,1.7-3.34-.36-5.34-1.92-7.71-4.04Z"/>
    <path d="M316.7,324.23c4-2.93,11.73-2.63,16.78-2.2,13.33,1.15,15.18,15.9,6.72,24.02-4.55,4.37-18.46,4.81-23.29,1.19-7.94-5.95-8.38-17.03-.2-23.02Z"/>
    <path d="M285.72,461.16c-3.3-.39-8.3.75-11.3-.44-1.28-.5-1.67-1.55-2.63-2.16-6.07-3.85-12.15-7.77-18.43-11.27l-21.82,12.69-10.57.23.48-3.61,26.85-15.85c5.38-.46,8.89-.94,13.61,1.78,7,4.03,13.93,9.5,20.99,13.55,3.09,1.77,3.77-.14,2.83,5.08Z"/>
    <path d="M211.21,478.99c2.04-.69,7.45-.34,7.59,2.55.2,4.07-3.22,5.1-6.68,4.53-3.87-.63-3.07-6.35-.91-7.08Z"/>
    <path d="M354.95,349.25c-.24-.2-.91-1.35-.98-1.66-1.53-7.26,10.98-6.15,9.27-.58-.9,2.94-6.26,3.89-8.3,2.24Z"/>
    <path d="M374.31,88.6c.17.07.29.89,1.08,1.08,1.33.33,2.81-.74,3.3,1,.96,3.42-.33,10.93-.14,14.77.58.62.54,2.13.82,2.53.98,1.39,21.44,5.56,22.36,9.56.28,1.2-1.2,5.23-2.68,5.78l-16.91,2.04c.09,7.54,5.83,15.1,1.46,22.35l-18.12-4.73c-2.84-5.08-7.17-8.9-11.45-12.71-2.93.39-5.73,1.3-8.66,1.72-8.71,1.25-12.96.75-21.37-1.97-1.81-.59-4.08-1.06-5.44-2.26-.53-1.01,1.11-5.25,1.99-6.18l14.54-11.89c.23-.85-1.91-3.17-2.59-4-2.07-2.5-4.78-5.04-7.24-7.18l1.3-5.7,21.74,5.22c2.32-.32,9.71-11.07,12.13-12.89,1.22-.34,12.1,2.71,13.88,3.45Z"/>
  </g>
  <g class="st2">
    <path class="st1" d="M533.67-89.14v792H-258.33V-89.14h792ZM334.87,41.55C292.67,6.05,204.59-17.67,152.4,3.78c-25.52,10.49-40.74,30.47-51.18,55.31-2.02,4.8-3.61,9.79-5.5,14.64-8.87.46-17.79.17-26.64.7-33.61,2.02-71.55,11.07-98.33,30.69-29.05,21.29-45.71,39.3-63.09,69.9-6.29,11.07-13.67,21.48-19.12,33.07-4.34,9.21-12.7,28.74-13.94,38.35-.14,1.06-.22,3.29-.04,4.28.39,2.09,2.5.88,3.91.98.71.05,1.45.52,2.15.53,3.08.05,6.72-.62,9.93-.39,4.54-5.02,8.29-10.83,13.33-15.44,2.98-2.73,6.06-4.74,9.5-6.82,1.1-.66,1.5-2.15,3.38-1.65-7.88,16.34-15.17,33.01-20.75,50.48-13.3,41.65-15.28,83.03-2.62,125.19l6.9,19.11c5.33.6,10.64.31,15.99-.03-.46-7.36-.91-12.59,1.09-19.77,1.85-6.61,5.08-13.35,9.45-18.61-1.95,17.84.38,35.05,5.04,52.29,8.35,30.95,24.51,57.6,35.28,87.52,7.42,20.62,19.05,60.2,7.13,79.97-2.43,4.03-8.9,8.86-10.13,13.01-.39,1.33-.69,3.57-.31,4.85.28.93,1.27.27,1.33.36.15.24-.1.99.13,1.26.74.86,14.77.76,16.89.54,16.55-1.75,45.68-22.76,56.43-35.33,1.5-1.76,3.35-4.24,4.32-6.35.7-.47,4.45,5.85,4.86,6.4,6.34,8.42,12.22,17.26,18.09,26.06.32.48.49,1.03.56,1.6l1.9-.47-.94,1.17c3.2,4.6,5.94,10.21,9.43,14.54.78.97,2.05,2.37,3.29,2.49,2.85-.62,13.39.95,14.96-.57.81-.78,3.06-6.55,4.04-8.19,6.56-10.96,18.9-23.15,28.69-31.27.89-.74,2.01-1.66,3.06-2.12.65.11,3.63,4.46,4.26,5.37,9.34,13.4,17.2,29.38,26.05,42.53.24.35,1.74,2.3,1.9,2.43,1.53,1.28,12.55.1,15.28.42,1.17-.39,1.49-4.73,2-6.16,3.15-8.78,8.67-17.27,12.88-25.5,4.82-9.42,9.72-21.33,15.74-29.83.48-.67,1.16-1.73,2.07-1.75,1.37-.04,5.94,4.27,7.2,5.27,5.01,3.96,10.29,8.53,15.82,12,16.36,10.28,49.85,24.4,69.05,21.52,2.74-.41,2.76-3.59,2.1-5.85-.35-1.21-3.26-4.41-3.94-5.66-5.17-9.48-9.95-34.18-8.91-44.81.12-1.23,2.27-11.28,2.61-11.78.45-.64,1.71-.52,2.43-.49,5.31.18,11.29,1.34,16.77,1.49,11.2.31,21.98-.26,32.87-2.91-.52-2.08.28-4.2-.95-5.99-.95-1.38-2.13-1.36-3.09-2.18-12.89-11.07-22.97-24.55-21.39-42.92,1.16-13.46,17.26-33.32,24.39-45.17,15.56-25.88,24.44-57.72,16.26-87.55-1.92-7-5.36-13.51-7.97-19.95-.38-.95-.6-2.43-1-3.45l7.38,6.77,9.88,13.62c4.96.35,10.11.85,15.05.54.41-.02,1.17-.17,1.28-.62l-1.46-42.13c-2.64-27.03-11.64-50.22-25.46-72.35-3.05-4.89-6.52-9.58-9.55-14.49-.16-1.04.15-.56.69-.72,5.02-1.54,8.34-.26,12.26-5.02,14.59-17.75.9-42.26-9.22-58.42-1.17-1.86-6.52-8.43-6.6-9.73,6.31-20.66,13.61-42.84,12.48-64.75-.1-1.94-1.62-16.54-2.2-17.49-.23-.37-.99-.39-1.11-.54-.1-.12.53-1.82.38-3.03-1.27-10.72-14.2-24.47-22.24-31.23Z"/>
    <path d="M334.87,41.55c8.04,6.76,20.97,20.51,22.24,31.23.14,1.21-.48,2.91-.38,3.03.12.15.89.16,1.11.54.58.96,2.1,15.55,2.2,17.49,1.13,21.92-6.18,44.09-12.48,64.75.09,1.29,5.44,7.86,6.6,9.73,10.12,16.16,23.81,40.67,9.22,58.42-3.92,4.77-7.24,3.48-12.26,5.02-.53.16-.85-.32-.69.72,3.02,4.91,6.49,9.6,9.55,14.49,13.82,22.13,22.82,45.32,25.46,72.35l1.46,42.13c-.11.45-.88.6-1.28.62-4.94.3-10.09-.19-15.05-.54l-9.88-13.62-7.38-6.77c.41,1.03.62,2.5,1,3.45,2.6,6.44,6.05,12.96,7.97,19.95,8.18,29.83-.7,61.67-16.26,87.55-7.13,11.85-23.23,31.71-24.39,45.17-1.58,18.37,8.5,31.85,21.39,42.92.96.82,2.13.8,3.09,2.18,1.23,1.79.43,3.91.95,5.99-10.88,2.65-21.67,3.22-32.87,2.91-5.48-.15-11.46-1.31-16.77-1.49-.72-.02-1.97-.15-2.43.49-.35.49-2.49,10.55-2.61,11.78-1.04,10.63,3.74,35.33,8.91,44.81.68,1.24,3.58,4.45,3.94,5.66.66,2.25.64,5.43-2.1,5.85-19.2,2.88-52.68-11.25-69.05-21.52-5.53-3.47-10.81-8.04-15.82-12-1.27-1-5.83-5.31-7.2-5.27-.91.02-1.59,1.08-2.07,1.75-6.01,8.51-10.92,20.42-15.74,29.83-4.21,8.23-9.72,16.72-12.88,25.5-.51,1.42-.82,5.76-2,6.16-2.73-.32-13.75.86-15.28-.42-.16-.13-1.66-2.08-1.9-2.43-8.85-13.15-16.71-29.13-26.05-42.53-.63-.91-3.61-5.26-4.26-5.37-1.05.46-2.17,1.38-3.06,2.12-9.79,8.12-22.13,20.31-28.69,31.27-.98,1.63-3.23,7.41-4.04,8.19-1.58,1.52-12.12-.05-14.96.57-1.24-.12-2.51-1.52-3.29-2.49-3.49-4.33-6.23-9.94-9.43-14.54l.94-1.17-1.9.47c-.07-.57-.24-1.12-.56-1.6-5.87-8.79-11.75-17.63-18.09-26.06-.42-.55-4.16-6.87-4.86-6.4-.97,2.11-2.81,4.59-4.32,6.35-10.75,12.56-39.88,33.58-56.43,35.33-2.11.22-16.15.33-16.89-.54-.23-.27.02-1.01-.13-1.26-.06-.09-1.05.57-1.33-.36-.38-1.28-.08-3.52.31-4.85,1.22-4.14,7.7-8.98,10.13-13.01,11.92-19.77.3-59.34-7.13-79.97-10.77-29.92-26.94-56.57-35.28-87.52-4.65-17.25-6.99-34.46-5.04-52.29-4.37,5.26-7.61,11.99-9.45,18.61-2.01,7.19-1.56,12.41-1.09,19.77-5.35.34-10.67.63-15.99.03l-6.9-19.11c-12.66-42.17-10.68-83.54,2.62-125.19,5.58-17.47,12.87-34.14,20.75-50.48-1.88-.51-2.29.99-3.38,1.65-3.45,2.08-6.52,4.1-9.5,6.82-5.04,4.61-8.79,10.42-13.33,15.44-3.2-.23-6.85.44-9.93.39-.7-.01-1.45-.48-2.15-.53-1.42-.1-3.52,1.1-3.91-.98-.18-.99-.1-3.22.04-4.28,1.24-9.61,9.6-29.14,13.94-38.35,5.45-11.59,12.83-21.99,19.12-33.07,17.38-30.61,34.04-48.61,63.09-69.9,26.78-19.62,64.72-28.68,98.33-30.69,8.85-.53,17.77-.25,26.64-.7,1.89-4.85,3.49-9.84,5.5-14.64,10.44-24.84,25.66-44.82,51.18-55.31,52.19-21.45,140.27,2.27,182.47,37.77ZM323.87,49.66c-19.15-19.85-58.55-39.48-85.95-42.37-37.88-3.99-79.19.2-103.28,32.47-12.13,16.25-16.56,31.13-23.85,49.55-1.75,4.43-5.61,9.97-4.91,15.01.82,5.92,10.7,22.59,14.2,28.5,12.93,21.86,30.72,40.48,51.74,54.76,19.85,13.49,51.48,21.8,74.97,26.73,26.86,5.64,56.27,12.42,83.75,10.32,3.24-.25,11.25-1.31,13.52-3.52.1-.09,1.4-1.96,1.53-2.18,8.82-15.2,1.19-24.95-5.9-38.03-2.32-4.28-4.43-8.75-6.51-13.16-1.11-.74-11.78,1.45-14.18,1.69-56.92,5.72-123.31-25.16-173.72-49.34-1.65-.79-11.62-4.69-11.7-5.63l2.23-5.51c5.76,1.84,12.3,2.98,17.93,5.08,8,2.98,15.59,7.62,23.34,11.2s17.7,7.05,24.52,10.98c.84.48,1.06,1.43,1.14,1.48.12.06,1.01-.43,1.85-.21,3.25.85,8.98,3.93,12.49,5.31,33.97,13.42,55.8,19.99,93.23,15.54,5.57-.66,11.15-2.9,16.79-1.89.63-.17,3.32-8.68,3.79-10.14,9.78-30.17,17.26-71.46-7.02-96.64ZM90.42,85.96c-14.88-2.07-30.06.24-44.62,3.59-7.04,1.62-13.95,4.29-21.08,5.07-.35,3.33-.85,7.04-.91,10.36s.75,7.26.41,10.49c-.19,1.76-1.3,3.32-.99,5.19.41,1.67,17.78,4.43,20.42,4.64,1.74.14,9.48-.58,9.81.76l-8.13,36.66,44.89,1.41-3.66,37.23c12.04,1.96,24.28.88,36.43,1.23,1.45,4.95-.19,10.09-.42,15.06-.44,9.26-.22,18.56-.97,27.79-.03.45.97.36,1.2.28.32-.1,3.97-4.29,4.8-4.82,9.9-8.45,19.79-19.51,27.28-30.26.81-1.17,6.92-10.46,6.54-10.98-15.92-8.1-28.97-23.38-39.25-37.75-10.79-15.08-21.69-33.52-30.87-49.72-1.24-2.19-5.76-9.41-6.07-11.24-.62-3.71,5.65-14.34,5.19-14.99ZM-19.92,182.85l3.76-32.97-.66-1.06c-10.93,1.99-22.22.13-33.19,1.29-2.43,2.35-4.77,4.85-7.06,7.34-2.95,3.21-6.34,7.1-9.36,10.78-3.65,4.45-7.05,9.1-10.57,13.65,6.97-.02,14.05-.15,20.88,1.43,1.97,3.3.91,7.19,1.19,10.8.69,9.03,1.82,18.07,2.4,27.1.48.5,5.85-.38,6.95-.38,6.04.02,14.3,1.02,20.17.31,1.21-.15,2.18-1.21,3.58-.89l2.39,20.88c1,.6,1.93,1.06,3.11,1.2,3.59.43,21.26-.83,22.68.58.44.44.57,1.36.55,1.98-1.35,9.28-1.87,18.69-2.29,28.06.6.96,9.38.44,11.2.55,4.96.3,10.47,1.33,15.38,1.45,2,.05,5.91-2.78,7.7-4.05,3.61-2.55,6.75-6.03,10.43-8.54l21.91-20.29c.83-2.54-2.93-.35-3.64-.27-3.38.39-8.6.55-12.14.7-5.46.24-10.03,1.75-10.35-5.23s1.23-13.75,1.15-20.61c-.03-2.48.06-4.98.02-7.46l-33.6-.2-3.79-25.01-28.82-1.17ZM245.67,285.68c-19.72-21.11-32.97-46.77-44.69-73.08l-23.09-6.22-1.64.68c-14.68,24.37-35.36,45.24-59.36,60.09-7.05,4.37-15.72,9.27-23.03,13.07-2.53,1.32-9.01,4.92-11.41,5.25-4.87.68-10.61-1.49-15.55-1.39-1.24-5.63,2.83-6.36,4.67-10.93,1.4-3.5,2.43-8.91,3.14-12.7.12-.63.9-.94-.36-.84-15.46,15.71-32.45,27.45-52.91,35.89-8.58,3.54-17.59,6.3-26.27,9.67-6.25,2.42-15.39,7.84-21.89,8.33-3.57.27-15.97-1.7-19.41-2.98-.57-.21-.73.23-.69-.77.17-3.96,3.48-3.9,6.1-5.44,10.9-6.41,13.09-18.94,16.45-30.27-1.63-1.03-3.08-.02-4.49-.08-.87-.03-1.79-.44-2.91-.46-11.71-.2-22.92,2.08-34.35,4.14-1.26-.83-5.36-25.37-6.64-29.35-.29-.92-.17-2.45-1.49-2.1-3.09,7.23-5.8,14.59-8.5,21.96-.2.54-.9.61-.94.7-.93,2.62-4.05,12.27-4.04,14.52,0,2.6,5.69,17.78,7,21.33,2.13,5.77,4.84,11.38,6.73,17.25l.68.76c7.68.66,15.59.27,23.29.69,3.85.21,10.3.29,13.79,1.08,1.32.3,5.75,4.76,6.01,6.02.38,1.84-3.4,5.73-4.41,7.38-18.2,29.8-27.77,50.01-19.84,85.91,8.73,39.54,30.71,72.05,42.21,110.34,5.86,19.51,12.24,49.9,4.68,69.22l-4.32,7.9,13.56-9.22c5.49-3.44,10.75-7.41,15.47-11.87,1.95-1.84,4.77-6.04,6.71-7.25.56-.35,1.16.1,1.2.05.11-.17-.39-.85-.05-1.7.54-1.34,1.97-1.78,2.3-2.28.35-.53.31-1.33.7-1.93,2.57-3.99,5.25-7.95,7.92-11.86,5.2.43,10.72-.51,15.88.62.21.52.26,1.07.58,1.55,9.19,13.63,18.38,27.25,27.55,40.59,1.86,2.71,3.88,5.54,5.1,8.58,1.41.97,3.26-2.92,4.05-3.82,5.33-6.12,11.36-12.72,17.42-18.19,3.54-3.19,14.45-12.7,18.59-13.44,2.51-.44,11.65-.34,14.36-.03,3.42.39,6.66,4.98,8.6,7.71,4.29,6.03,8.62,13.2,12.66,19.48,2.39,3.73,4.94,9.3,7.55,12.6.45.56.79,1.15,1.65.99.31-2.24,1.65-4.59,2.7-6.66,2.1-4.15,4.4-8.21,6.48-12.23,6.22-12.05,11.85-24.15,20.35-34.81,2.47-2.23,13.43-.29,17.14-.98,11.6,7.58,21.96,18.29,33.77,25.34,10.18,6.07,21.92,11.5,33.25,14.95-4.1-12.05-7.43-24.92-8.07-37.73-.53-10.5,2.46-20.81,5.27-30.8,4.58.45,11.18-.85,15.5-.05,2.07.38,6.38,3.62,9.47,4.44,6.24,1.65,14.25,2.25,20.53.81-3.66-3.73-7.32-6.58-10.58-10.79-8.64-11.11-12.19-24.47-10.56-38.86,1.77-15.65,16.84-33.09,24.91-46.6,9.62-16.1,19.56-42.46,18.8-61.35-.66-16.5-8.75-36.73-16.73-50.91-1.98-3.52-7.68-9.2-1.23-11.66,4.52.58,9.66-.67,14.11.23,2.74.55,5.9,2.34,8.51,3.45,2.16.92,5.18,2.1,7.66,3.4.97.51,7.88,5.35,8.29,4.89-.47-27.88-7.49-54.44-21.68-78.33-3.14-5.28-6.92-11.59-10.17-16.52-.11-.17-.65-.28-.93-.71-1.3-1.97-3-5.32-4.44-7.05-.32-.38-.63-.67-1.13-.79-6.31-.34-12.67-.27-18.97-.69-27.61-1.85-51.59-6.58-78.54-11.65-3.98-.75-7.96-1.78-11.89-2.74-.13.8.23,1.41.53,2.11,10.72,24.51,29.39,53.07,50.83,69.1,2.05,1.53,4.5,2.87,6.45,4.59-.34-7.69-1.42-15.45-1.06-23.13.17-3.62.66-12.92,1.6-16.1.28-.94,1.02-1.97,1.63-2.75l9.11-8.63c1.16-.93,5.41,1.66,5.68,2.5-.21,5.57-1.69,11.33-2.06,16.87-.65,9.89.23,28.82,3.21,38.07,1.1,3.41,3.85,6.13,4.58,9.67l-12.83,8.23c-5.26-2.73-10.77-5.9-15.83-9.17-10.63-6.88-19.41-13.83-28.03-23.06ZM-97.64,345l-.95.24c.15,13.78.8,27.87,5.04,41.01,3.06-4.42,5.83-9.14,9.37-13.17,2.38-2.71,5.1-5.19,7.71-7.62,2.33-2.16,5.37-3.34,6.18-7.03-1.17-1.01-14.28,3.18-16.31,2.17-.52-.26-5.36-6.68-6.15-7.77-1.74-2.37-3.45-5.25-4.89-7.83Z"/>
    <path class="st1" d="M245.67,285.68c8.62,9.23,17.4,16.18,28.03,23.06,5.06,3.27,10.56,6.44,15.83,9.17l12.83-8.23c-.73-3.54-3.48-6.26-4.58-9.67-2.97-9.25-3.86-28.18-3.21-38.07.36-5.54,1.84-11.3,2.06-16.87-.27-.84-4.52-3.43-5.68-2.5l-9.11,8.63c-.61.78-1.35,1.81-1.63,2.75-.95,3.18-1.44,12.48-1.6,16.1-.36,7.67.72,15.44,1.06,23.13-1.95-1.72-4.4-3.05-6.45-4.59-21.44-16.03-40.11-44.59-50.83-69.1-.3-.69-.66-1.31-.53-2.11,3.93.96,7.91,1.99,11.89,2.74,26.95,5.06,50.92,9.8,78.54,11.65,6.31.42,12.66.35,18.97.69.49.13.81.41,1.13.79,1.44,1.73,3.14,5.08,4.44,7.05.28.42.82.54.93.71,3.25,4.93,7.03,11.24,10.17,16.52,14.19,23.89,21.21,50.46,21.68,78.33-.42.45-7.33-4.39-8.29-4.89-2.48-1.3-5.49-2.48-7.66-3.4-2.61-1.11-5.77-2.9-8.51-3.45-4.44-.9-9.59.34-14.11-.23-6.44,2.46-.75,8.14,1.23,11.66,7.98,14.18,16.07,34.41,16.73,50.91.76,18.88-9.18,45.25-18.8,61.35-8.07,13.51-23.13,30.95-24.91,46.6-1.63,14.39,1.92,27.75,10.56,38.86,3.27,4.2,6.92,7.06,10.58,10.79-6.28,1.43-14.29.84-20.53-.81-3.09-.82-7.4-4.05-9.47-4.44-4.33-.8-10.92.49-15.5.05-2.81,9.99-5.79,20.31-5.27,30.8.64,12.81,3.97,25.68,8.07,37.73-11.34-3.45-23.08-8.88-33.25-14.95-11.81-7.04-22.17-17.76-33.77-25.34-3.71.69-14.67-1.26-17.14.98-8.5,10.66-14.13,22.77-20.35,34.81-2.08,4.03-4.38,8.08-6.48,12.23-1.05,2.07-2.39,4.42-2.7,6.66-.86.17-1.2-.42-1.65-.99-2.61-3.3-5.16-8.87-7.55-12.6-4.03-6.28-8.36-13.46-12.66-19.48-1.94-2.73-5.18-7.32-8.6-7.71-2.71-.31-11.85-.42-14.36.03-4.14.73-15.05,10.24-18.59,13.44-6.06,5.46-12.09,12.07-17.42,18.19-.78.9-2.64,4.79-4.05,3.82-1.22-3.04-3.24-5.86-5.1-8.58-9.17-13.34-18.35-26.96-27.55-40.59-.32-.48-.37-1.04-.58-1.55-5.16-1.12-10.68-.18-15.88-.62-2.68,3.91-5.35,7.88-7.92,11.86-.39.6-.35,1.4-.7,1.93s-1.76.94-2.3,2.28c-.35.85.15,1.53.05,1.7-.03.05-.64-.4-1.2-.05-1.94,1.22-4.75,5.41-6.71,7.25-4.72,4.46-9.98,8.43-15.47,11.87l-13.56,9.22,4.32-7.9c7.56-19.31,1.18-49.7-4.68-69.22-11.5-38.28-33.48-70.79-42.21-110.34-7.93-35.9,1.64-56.11,19.84-85.91,1.01-1.66,4.79-5.54,4.41-7.38-.26-1.26-4.69-5.72-6.01-6.02-3.49-.78-9.95-.87-13.79-1.08-7.71-.42-15.62-.03-23.29-.69l-.68-.76c-1.89-5.87-4.61-11.48-6.73-17.25-1.31-3.56-6.99-18.74-7-21.33,0-2.25,3.11-11.91,4.04-14.52.03-.09.74-.16.94-.7,2.69-7.36,5.4-14.73,8.5-21.96,1.32-.35,1.19,1.18,1.49,2.1,1.28,3.99,5.38,28.52,6.64,29.35,11.43-2.06,22.64-4.34,34.35-4.14,1.12.02,2.03.43,2.91.46,1.41.06,2.86-.95,4.49.08-3.36,11.33-5.55,23.87-16.45,30.27-2.62,1.54-5.93,1.48-6.1,5.44-.04,1,.12.56.69.77,3.44,1.28,15.84,3.26,19.41,2.98,6.5-.5,15.64-5.91,21.89-8.33,8.68-3.36,17.68-6.13,26.27-9.67,20.45-8.43,37.45-20.17,52.91-35.89,1.26-.1.48.21.36.84-.7,3.78-1.74,9.2-3.14,12.7-1.83,4.57-5.9,5.3-4.67,10.93,4.95-.1,10.68,2.07,15.55,1.39,2.4-.33,8.88-3.94,11.41-5.25,7.31-3.81,15.98-8.71,23.03-13.07,24-14.85,44.68-35.72,59.36-60.09l1.64-.68,23.09,6.22c11.71,26.31,24.97,51.97,44.69,73.08ZM198.14,305.44c-8.18,5.99-7.74,17.07.2,23.02,4.83,3.62,18.74,3.18,23.29-1.19,8.46-8.12,6.61-22.87-6.72-24.02-5.06-.44-12.79-.73-16.78,2.2ZM49.36,330.88c2.37,2.12,4.37,3.68,7.71,4.04,3.66.4,14.28.53,17.01-1.7,3.46-2.82,4.38-12.05,3.74-16.18-.44-2.8-4.22-9.09-6.95-9.84-.97-.27-3.53-.53-4.67-.61-2.62-.18-11.87-.38-13.67.76-1.45.92-4.49,3.27-3.38,5.02l-1.43-.96c-3.66,6.93-4.65,13.86,1.63,19.47ZM236.39,330.46c2.04,1.65,7.4.7,8.3-2.24,1.7-5.57-10.81-6.68-9.27.58.07.31.73,1.46.98,1.66ZM131.67,349.79h11.51c-.09,1.99.12,4.02.02,6.02-.56,11.67-.15,26.5,2.89,37.85,3.34,12.46,15.42,15.98,26.75,17.87,18.11,3.01,56.17,1.71,73.8-3.62,9.01-2.72,13.82-10.09,17.85-18.13,7.83-15.63,10.04-33.72,8.96-51.06l-15.61-.44c2.29,17.25,2.46,35.45-7.19,50.61-10.76,16.91-22.68,16.25-41.52,15.61-8.63-.29-17.65-.47-26.36-.99-7.45-.44-12.67-1.86-17.5-7.92-6-7.52-5.98-30.16-5.79-39.82.05-2.32,1.38-9.39.07-11.06-.98-1.25-8.29-.56-10.38-.65-10.01-.45-21.72-1.68-31.66-1-.59.04-2.48.15-2.64.82-.45,4.09.47,8.44.52,12.37.11,8.54.15,28.57-4.04,35.59-9.41,15.75-29.22,13.2-44.65,12.62-13.38-.5-21-.31-32.75-7.16-15.93-9.28-19.3-18.09-22.53-35.89-1.48-8.14-2.16-16.45-3.73-24.58l-.53-.38-15.55.4c.05,1.81-.1,3.64.06,5.46.93,10.36,3.84,29.59,7.54,39,8.08,20.53,29.95,28.48,50.66,29.44,15.12.7,34.88.86,49.93,0,18.64-1.07,29.46-10.99,31.4-29.53,1.09-10.37.18-21,.48-31.42ZM167.16,442.37c.95-5.22.26-3.31-2.83-5.08-7.06-4.04-14-9.52-20.99-13.55-4.73-2.72-8.23-2.24-13.61-1.78l-26.85,15.85-.48,3.61,10.57-.23,21.82-12.69c6.29,3.5,12.36,7.42,18.43,11.27.96.61,1.36,1.66,2.63,2.16,3,1.19,8.01.05,11.3.44ZM92.65,460.21c-2.16.73-2.96,6.46.91,7.08,3.47.56,6.88-.47,6.68-4.53-.14-2.89-5.55-3.24-7.59-2.55Z"/>
    <path class="st1" d="M323.87,49.66c24.28,25.17,16.79,66.47,7.02,96.64-.47,1.47-3.17,9.97-3.79,10.14-5.64-1-11.22,1.23-16.79,1.89-37.43,4.45-59.26-2.12-93.23-15.54-3.51-1.39-9.24-4.46-12.49-5.31-.84-.22-1.73.27-1.85.21-.08-.04-.3-.99-1.14-1.48-6.83-3.93-17.05-7.52-24.52-10.98s-15.33-8.22-23.34-11.2c-5.64-2.1-12.17-3.24-17.93-5.08l-2.23,5.51c.08.94,10.05,4.84,11.7,5.63,50.4,24.18,116.8,55.06,173.72,49.34,2.4-.24,13.07-2.43,14.18-1.69,2.07,4.41,4.19,8.88,6.51,13.16,7.09,13.08,14.72,22.84,5.9,38.03-.12.21-1.43,2.08-1.53,2.18-2.27,2.2-10.28,3.27-13.52,3.52-27.47,2.1-56.89-4.68-83.75-10.32-23.49-4.93-55.11-13.24-74.97-26.73-21.02-14.28-38.81-32.89-51.74-54.76-3.5-5.92-13.38-22.59-14.2-28.5-.7-5.04,3.16-10.58,4.91-15.01,7.29-18.41,11.72-33.3,23.85-49.55C158.73,7.48,200.04,3.29,237.92,7.28c27.4,2.89,66.8,22.52,85.95,42.37ZM255.75,69.82c-1.78-.74-12.66-3.8-13.88-3.45-2.41,1.82-9.81,12.56-12.13,12.89l-21.74-5.22-1.3,5.7c2.46,2.14,5.17,4.68,7.24,7.18.68.82,2.81,3.15,2.59,4l-14.54,11.89c-.88.94-2.52,5.17-1.99,6.18,1.36,1.2,3.63,1.68,5.44,2.26,8.41,2.72,12.66,3.22,21.37,1.97,2.93-.42,5.73-1.34,8.66-1.72,4.28,3.81,8.61,7.63,11.45,12.71l18.12,4.73c4.37-7.26-1.36-14.82-1.46-22.35l16.91-2.04c1.48-.55,2.96-4.58,2.68-5.78-.93-4-21.39-8.16-22.36-9.56-.28-.4-.24-1.92-.82-2.53-.2-3.84,1.1-11.35.14-14.77-.49-1.74-1.96-.67-3.3-1-.8-.2-.91-1.01-1.08-1.08Z"/>
    <path class="st1" d="M90.42,85.96c.46.65-5.82,11.27-5.19,14.99.31,1.83,4.83,9.04,6.07,11.24,9.18,16.2,20.08,34.63,30.87,49.72s23.33,29.66,39.25,37.75c.38.52-5.73,9.81-6.54,10.98-7.49,10.75-17.38,21.82-27.28,30.26-.83.52-4.47,4.71-4.8,4.82-.23.08-1.23.16-1.2-.28.75-9.22.53-18.53.97-27.79.24-4.98,1.88-10.11.42-15.06-12.15-.35-24.39.73-36.43-1.23l3.66-37.23-44.89-1.41,8.13-36.66c-.32-1.34-8.07-.62-9.81-.76-2.63-.21-20-2.96-20.42-4.64-.31-1.87.8-3.43.99-5.19.35-3.23-.47-7.12-.41-10.49s.56-7.03.91-10.36c7.13-.77,14.04-3.45,21.08-5.07,14.56-3.35,29.73-5.65,44.62-3.59Z"/>
    <path class="st1" d="M-19.92,182.85l28.82,1.17,3.79,25.01,33.6.2c.04,2.48-.05,4.97-.02,7.46.08,6.86-1.46,13.67-1.15,20.61s4.89,5.47,10.35,5.23c3.54-.16,8.76-.31,12.14-.7.71-.08,4.47-2.27,3.64.27l-21.91,20.29c-3.68,2.51-6.82,5.99-10.43,8.54-1.79,1.26-5.7,4.1-7.7,4.05-4.91-.12-10.42-1.16-15.38-1.45-1.82-.11-10.6.41-11.2-.55.41-9.37.93-18.78,2.29-28.06.02-.62-.11-1.54-.55-1.98-1.42-1.41-19.09-.15-22.68-.58-1.19-.14-2.11-.6-3.11-1.2l-2.39-20.88c-1.4-.32-2.37.74-3.58.89-5.86.72-14.13-.28-20.17-.31-1.1,0-6.47.88-6.95.38-.58-9.04-1.71-18.08-2.4-27.1-.28-3.61.78-7.51-1.19-10.8-6.84-1.58-13.91-1.45-20.88-1.43,3.52-4.55,6.92-9.2,10.57-13.65,3.02-3.68,6.41-7.58,9.36-10.78,2.29-2.48,4.63-4.99,7.06-7.34,10.97-1.17,22.26.69,33.19-1.29l.66,1.06-3.76,32.97Z"/>
    <path class="st1" d="M-97.64,345c1.44,2.58,3.15,5.46,4.89,7.83.8,1.09,5.63,7.51,6.15,7.77,2.03,1.02,15.14-3.18,16.31-2.17-.81,3.69-3.85,4.86-6.18,7.03-2.61,2.43-5.34,4.91-7.71,7.62-3.55,4.03-6.31,8.76-9.37,13.17-4.24-13.14-4.89-27.23-5.04-41.01l.95-.24Z"/>
    <path d="M131.67,349.79c-.31,10.42.6,21.05-.48,31.42-1.94,18.54-12.75,28.46-31.4,29.53-15.05.86-34.81.7-49.93,0-20.71-.97-42.58-8.91-50.66-29.44-3.7-9.41-6.61-28.64-7.54-39-.16-1.81-.02-3.64-.06-5.46l15.55-.4.53.38c1.57,8.13,2.25,16.44,3.73,24.58,3.24,17.79,6.6,26.61,22.53,35.89,11.75,6.85,19.37,6.66,32.75,7.16,15.44.58,35.24,3.13,44.65-12.62,4.19-7.01,4.15-27.05,4.04-35.59-.05-3.93-.97-8.28-.52-12.37.16-.67,2.05-.78,2.64-.82,9.94-.68,21.65.56,31.66,1,2.09.09,9.4-.59,10.38.65,1.31,1.67-.02,8.74-.07,11.06-.2,9.67-.21,32.31,5.79,39.82,4.84,6.06,10.06,7.48,17.5,7.92,8.71.51,17.73.69,26.36.99,18.84.64,30.76,1.3,41.52-15.61,9.65-15.16,9.48-33.36,7.19-50.61l15.61.44c1.08,17.34-1.13,35.43-8.96,51.06-4.03,8.04-8.84,15.41-17.85,18.13-17.62,5.33-55.69,6.63-73.8,3.62-11.33-1.88-23.41-5.41-26.75-17.87-3.04-11.34-3.45-26.18-2.89-37.85.1-1.99-.11-4.02-.02-6.02h-11.51Z"/>
    <path d="M49.36,330.88c-6.28-5.61-5.3-12.53-1.63-19.47l1.43.96c-1.11-1.75,1.93-4.09,3.38-5.02,1.8-1.14,11.05-.94,13.67-.76,1.14.08,3.7.34,4.67.61,2.73.75,6.51,7.04,6.95,9.84.64,4.12-.28,13.35-3.74,16.18-2.73,2.23-13.35,2.1-17.01,1.7-3.34-.36-5.34-1.92-7.71-4.04Z"/>
    <path d="M198.14,305.44c4-2.93,11.73-2.63,16.78-2.2,13.33,1.15,15.18,15.9,6.72,24.02-4.55,4.37-18.46,4.81-23.29,1.19-7.94-5.95-8.38-17.03-.2-23.02Z"/>
    <path d="M167.16,442.37c-3.3-.39-8.3.75-11.3-.44-1.28-.5-1.67-1.55-2.63-2.16-6.07-3.85-12.15-7.77-18.43-11.27l-21.82,12.69-10.57.23.48-3.61,26.85-15.85c5.38-.46,8.89-.94,13.61,1.78,7,4.03,13.93,9.5,20.99,13.55,3.09,1.77,3.77-.14,2.83,5.08Z"/>
    <path d="M92.65,460.21c2.04-.69,7.45-.34,7.59,2.55.2,4.07-3.22,5.1-6.68,4.53-3.87-.63-3.07-6.35-.91-7.08Z"/>
    <path d="M236.39,330.46c-.24-.2-.91-1.35-.98-1.66-1.53-7.26,10.98-6.15,9.27-.58-.9,2.94-6.26,3.89-8.3,2.24Z"/>
    <path d="M255.75,69.82c.17.07.29.89,1.08,1.08,1.33.33,2.81-.74,3.3,1,.96,3.42-.33,10.93-.14,14.77.58.62.54,2.13.82,2.53.98,1.39,21.44,5.56,22.36,9.56.28,1.2-1.2,5.23-2.68,5.78l-16.91,2.04c.09,7.54,5.83,15.1,1.46,22.35l-18.12-4.73c-2.84-5.08-7.17-8.9-11.45-12.71-2.93.39-5.73,1.3-8.66,1.72-8.71,1.25-12.96.75-21.37-1.97-1.81-.59-4.08-1.06-5.44-2.26-.53-1.01,1.11-5.25,1.99-6.18l14.54-11.89c.23-.85-1.91-3.17-2.59-4-2.07-2.5-4.78-5.04-7.24-7.18l1.3-5.7,21.74,5.22c2.32-.32,9.71-11.07,12.13-12.89,1.22-.34,12.1,2.71,13.88,3.45Z"/>
  </g>
  <g>
    <path class="st0" d="M460.43,45.93c8.51,7.16,20.27,22.29,22.24,31.23.35,1.6.73,3.57.73,3.57s1.75,8.75,2.2,17.49c1.13,21.92-6.18,44.09-12.48,64.75.09,1.29,5.44,7.86,6.6,9.73,10.12,16.16,23.81,40.67,9.22,58.42-3.92,4.77-7.24,3.48-12.26,5.02-.53.16-.85-.32-.69.72,3.02,4.91,6.49,9.6,9.55,14.49,13.82,22.13,22.82,45.32,25.46,72.35l1.46,42.13c-.11.45-.88.6-1.28.62-4.94.3-10.09-.19-15.05-.54l-9.88-13.62-7.38-6.77c.41,1.03.62,2.5,1,3.45,2.6,6.44,6.05,12.96,7.97,19.95,8.18,29.83-.7,61.67-16.26,87.55-7.13,11.85-23.23,31.71-24.39,45.17-1.58,18.37,8.5,31.85,21.39,42.92.96.82,2.13.8,3.09,2.18,1.23,1.79.43,3.91.95,5.99-10.88,2.65-21.67,3.22-32.87,2.91-5.48-.15-11.46-1.31-16.77-1.49-.72-.02-1.97-.15-2.43.49-.35.49-2.49,10.55-2.61,11.78-1.04,10.63,3.74,35.33,8.91,44.81.68,1.24,3.58,4.45,3.94,5.66.66,2.25.64,5.43-2.1,5.85-19.2,2.88-52.68-11.25-69.05-21.52-5.53-3.47-10.81-8.04-15.82-12-1.27-1-5.83-5.31-7.2-5.27-.91.02-1.59,1.08-2.07,1.75-6.01,8.51-10.92,20.42-15.74,29.83-4.21,8.23-9.72,16.72-12.88,25.5-.51,1.42-.82,5.76-2,6.16-2.73-.32-13.75.86-15.28-.42-.16-.13-1.66-2.08-1.9-2.43-8.85-13.15-16.71-29.13-26.05-42.53-.63-.91-3.61-5.26-4.26-5.37-1.05.46-2.17,1.38-3.06,2.12-9.79,8.12-22.13,20.31-28.69,31.27-.98,1.63-3.23,7.41-4.04,8.19-1.58,1.52-12.12-.05-14.96.57-1.24-.12-2.51-1.52-3.29-2.49-3.49-4.33-6.23-9.94-9.43-14.54l.94-1.17-1.9.47c-.07-.57-.24-1.12-.56-1.6-5.87-8.79-11.75-17.63-18.09-26.06-.42-.55-4.16-6.87-4.86-6.4-.97,2.11-2.81,4.59-4.32,6.35-10.75,12.56-39.88,33.58-56.43,35.33-2.11.22-16.15.33-16.89-.54-.23-.27.02-1.01-.13-1.26-.06-.09-1.05.57-1.33-.36-.38-1.28-.08-3.52.31-4.85,1.22-4.14,7.7-8.98,10.13-13.01,11.92-19.77.3-59.34-7.13-79.97-10.77-29.92-26.94-56.57-35.28-87.52-4.65-17.25-6.99-34.46-5.04-52.29-4.37,5.26-7.61,11.99-9.45,18.61-2.01,7.19-1.56,12.41-1.09,19.77-5.35.34-10.67.63-15.99.03l-6.9-19.11c-12.66-42.17-10.68-83.54,2.62-125.19,5.58-17.47,12.87-34.14,20.75-50.48-1.88-.51-2.29.99-3.38,1.65-3.45,2.08-6.52,4.1-9.5,6.82-5.04,4.61-8.79,10.42-13.33,15.44-3.2-.23-6.85.44-9.93.39-.7-.01-1.45-.48-2.15-.53-1.42-.1-3.52,1.1-3.91-.98-.18-.99-.1-3.22.04-4.28,1.24-9.61,9.6-29.14,13.94-38.35,5.45-11.59,12.83-21.99,19.12-33.07,17.38-30.61,34.04-48.61,63.09-69.9,26.78-19.62,64.72-28.68,98.33-30.69,8.85-.53,17.77-.25,26.64-.7,1.89-4.85,3.49-9.84,5.5-14.64,10.44-24.84,25.66-44.82,51.18-55.31,52.19-21.45,140.27,2.27,182.47,37.77ZM449.43,54.03c-19.15-19.85-58.55-39.48-85.95-42.37-37.88-3.99-79.19.2-103.28,32.47-12.13,16.25-16.56,31.13-23.85,49.55-1.75,4.43-5.61,9.97-4.91,15.01.82,5.92,10.7,22.59,14.2,28.5,12.93,21.86,30.72,40.48,51.74,54.76,19.85,13.49,51.48,21.8,74.97,26.73,26.86,5.64,56.27,12.42,83.75,10.32,3.24-.25,11.25-1.31,13.52-3.52.1-.09,1.4-1.96,1.53-2.18,8.82-15.2,1.19-24.95-5.9-38.03-2.32-4.28-4.43-8.75-6.51-13.16-1.11-.74-11.78,1.45-14.18,1.69-56.92,5.72-123.31-25.16-173.72-49.34-1.65-.79-11.62-4.69-11.7-5.63l2.23-5.51c5.76,1.84,12.3,2.98,17.93,5.08,8,2.98,15.59,7.62,23.34,11.2s17.7,7.05,24.52,10.98c.84.48,1.06,1.43,1.14,1.48.12.06,1.01-.43,1.85-.21,3.25.85,8.98,3.93,12.49,5.31,33.97,13.42,55.8,19.99,93.23,15.54,5.57-.66,11.15-2.9,16.79-1.89.63-.17,3.32-8.68,3.79-10.14,9.78-30.17,17.26-71.46-7.02-96.64ZM215.97,90.34c-14.88-2.07-30.06.24-44.62,3.59-7.04,1.62-13.95,4.29-21.08,5.07-.35,3.33-.85,7.04-.91,10.36s.75,7.26.41,10.49c-.19,1.76-1.3,3.32-.99,5.19.41,1.67,17.78,4.43,20.42,4.64,1.74.14,9.48-.58,9.81.76l-8.13,36.66,44.89,1.41-3.66,37.23c12.04,1.96,24.28.88,36.43,1.23,1.45,4.95-.19,10.09-.42,15.06-.44,9.26-.22,18.56-.97,27.79-.03.45.97.36,1.2.28.32-.1,3.97-4.29,4.8-4.82,9.9-8.45,19.79-19.51,27.28-30.26.81-1.17,6.92-10.46,6.54-10.98-15.92-8.1-28.97-23.38-39.25-37.75-10.79-15.08-21.69-33.52-30.87-49.72-1.24-2.19-5.76-9.41-6.07-11.24-.62-3.71,5.65-14.34,5.19-14.99ZM105.64,187.23l3.76-32.97-.66-1.06c-10.93,1.99-22.22.13-33.19,1.29-2.43,2.35-4.77,4.85-7.06,7.34-2.95,3.21-6.34,7.1-9.36,10.78-3.65,4.45-7.05,9.1-10.57,13.65,6.97-.02,14.05-.15,20.88,1.43,1.97,3.3.91,7.19,1.19,10.8.69,9.03,1.82,18.07,2.4,27.1.48.5,5.85-.38,6.95-.38,6.04.02,14.3,1.02,20.17.31,1.21-.15,2.18-1.21,3.58-.89l2.39,20.88c1,.6,1.93,1.06,3.11,1.2,3.59.43,21.26-.83,22.68.58.44.44.57,1.36.55,1.98-1.35,9.28-1.87,18.69-2.29,28.06.6.96,9.38.44,11.2.55,4.96.3,10.47,1.33,15.38,1.45,2,.05,5.91-2.78,7.7-4.05,3.61-2.55,6.75-6.03,10.43-8.54l21.91-20.29c.83-2.54-2.93-.35-3.64-.27-3.38.39-8.6.55-12.14.7-5.46.24-10.03,1.75-10.35-5.23s1.23-13.75,1.15-20.61c-.03-2.48.06-4.98.02-7.46l-33.6-.2-3.79-25.01-28.82-1.17ZM371.23,290.06c-19.72-21.11-32.97-46.77-44.69-73.08l-23.09-6.22-1.64.68c-14.68,24.37-35.36,45.24-59.36,60.09-7.05,4.37-15.72,9.27-23.03,13.07-2.53,1.32-9.01,4.92-11.41,5.25-4.87.68-10.61-1.49-15.55-1.39-1.24-5.63,2.83-6.36,4.67-10.93,1.4-3.5,2.43-8.91,3.14-12.7.12-.63.9-.94-.36-.84-15.46,15.71-32.45,27.45-52.91,35.89-8.58,3.54-17.59,6.3-26.27,9.67-6.25,2.42-15.39,7.84-21.89,8.33-3.57.27-15.97-1.7-19.41-2.98-.57-.21-.73.23-.69-.77.17-3.96,3.48-3.9,6.1-5.44,10.9-6.41,13.09-18.94,16.45-30.27-1.63-1.03-3.08-.02-4.49-.08-.87-.03-1.79-.44-2.91-.46-11.71-.2-22.92,2.08-34.35,4.14-1.26-.83-5.36-25.37-6.64-29.35-.29-.92-.17-2.45-1.49-2.1-3.09,7.23-5.8,14.59-8.5,21.96-.2.54-.9.61-.94.7-.93,2.62-4.05,12.27-4.04,14.52,0,2.6,5.69,17.78,7,21.33,2.13,5.77,4.84,11.38,6.73,17.25l.68.76c7.68.66,15.59.27,23.29.69,3.85.21,10.3.29,13.79,1.08,1.32.3,5.75,4.76,6.01,6.02.38,1.84-3.4,5.73-4.41,7.38-18.2,29.8-27.77,50.01-19.84,85.91,8.73,39.54,30.71,72.05,42.21,110.34,5.86,19.51,12.24,49.9,4.68,69.22l-4.32,7.9,13.56-9.22c5.49-3.44,10.75-7.41,15.47-11.87,1.95-1.84,4.77-6.04,6.71-7.25.56-.35,1.16.1,1.2.05.11-.17-.39-.85-.05-1.7.54-1.34,1.97-1.78,2.3-2.28.35-.53.31-1.33.7-1.93,2.57-3.99,5.25-7.95,7.92-11.86,5.2.43,10.72-.51,15.88.62.21.52.26,1.07.58,1.55,9.19,13.63,18.38,27.25,27.55,40.59,1.86,2.71,3.88,5.54,5.1,8.58,1.41.97,3.26-2.92,4.05-3.82,5.33-6.12,11.36-12.72,17.42-18.19,3.54-3.19,14.45-12.7,18.59-13.44,2.51-.44,11.65-.34,14.36-.03,3.42.39,6.66,4.98,8.6,7.71,4.29,6.03,8.62,13.2,12.66,19.48,2.39,3.73,4.94,9.3,7.55,12.6.45.56.79,1.15,1.65.99.31-2.24,1.65-4.59,2.7-6.66,2.1-4.15,4.4-8.21,6.48-12.23,6.22-12.05,11.85-24.15,20.35-34.81,2.47-2.23,13.43-.29,17.14-.98,11.6,7.58,21.96,18.29,33.77,25.34,10.18,6.07,21.92,11.5,33.25,14.95-4.1-12.05-7.43-24.92-8.07-37.73-.53-10.5,2.46-20.81,5.27-30.8,4.58.45,11.18-.85,15.5-.05,2.07.38,6.38,3.62,9.47,4.44,6.24,1.65,14.25,2.25,20.53.81-3.66-3.73-7.32-6.58-10.58-10.79-8.64-11.11-12.19-24.47-10.56-38.86,1.77-15.65,16.84-33.09,24.91-46.6,9.62-16.1,19.56-42.46,18.8-61.35-.66-16.5-8.75-36.73-16.73-50.91-1.98-3.52-7.68-9.2-1.23-11.66,4.52.58,9.66-.67,14.11.23,2.74.55,5.9,2.34,8.51,3.45,2.16.92,5.18,2.1,7.66,3.4.97.51,7.88,5.35,8.29,4.89-.47-27.88-7.49-54.44-21.68-78.33-3.14-5.28-6.92-11.59-10.17-16.52-.11-.17-.65-.28-.93-.71-1.3-1.97-3-5.32-4.44-7.05-.32-.38-.63-.67-1.13-.79-6.31-.34-12.67-.27-18.97-.69-27.61-1.85-51.59-6.58-78.54-11.65-3.98-.75-7.96-1.78-11.89-2.74-.13.8.23,1.41.53,2.11,10.72,24.51,29.39,53.07,50.83,69.1,2.05,1.53,4.5,2.87,6.45,4.59-.34-7.69-1.42-15.45-1.06-23.13.17-3.62.66-12.92,1.6-16.1.28-.94,1.02-1.97,1.63-2.75l9.11-8.63c1.16-.93,5.41,1.66,5.68,2.5-.21,5.57-1.69,11.33-2.06,16.87-.65,9.89.23,28.82,3.21,38.07,1.1,3.41,3.85,6.13,4.58,9.67l-12.83,8.23c-5.26-2.73-10.77-5.9-15.83-9.17-10.63-6.88-19.41-13.83-28.03-23.06ZM27.92,349.38l-.95.24c.15,13.78.8,27.87,5.04,41.01,3.06-4.42,5.83-9.14,9.37-13.17,2.38-2.71,5.1-5.19,7.71-7.62,2.33-2.16,5.37-3.34,6.18-7.03-1.17-1.01-14.28,3.18-16.31,2.17-.52-.26-5.36-6.68-6.15-7.77-1.74-2.37-3.45-5.25-4.89-7.83Z"/>
    <path class="st0" d="M257.23,354.17c-.31,10.42.6,21.05-.48,31.42-1.94,18.54-12.75,28.46-31.4,29.53-15.05.86-34.81.7-49.93,0-20.71-.97-42.58-8.91-50.66-29.44-3.7-9.41-6.61-28.64-7.54-39-.16-1.81-.02-3.64-.06-5.46l15.55-.4.53.38c1.57,8.13,2.25,16.44,3.73,24.58,3.24,17.79,6.6,26.61,22.53,35.89,11.75,6.85,19.37,6.66,32.75,7.16,15.44.58,35.24,3.13,44.65-12.62,4.19-7.01,4.15-27.05,4.04-35.59-.05-3.93-.97-8.28-.52-12.37.16-.67,2.05-.78,2.64-.82,9.94-.68,21.65.56,31.66,1,2.09.09,9.4-.59,10.38.65,1.31,1.67-.02,8.74-.07,11.06-.2,9.67-.21,32.31,5.79,39.82,4.84,6.06,10.06,7.48,17.5,7.92,8.71.51,17.73.69,26.36.99,18.84.64,30.76,1.3,41.52-15.61,9.65-15.16,9.48-33.36,7.19-50.61l15.61.44c1.08,17.34-1.13,35.43-8.96,51.06-4.03,8.04-8.84,15.41-17.85,18.13-17.62,5.33-55.69,6.63-73.8,3.62-11.33-1.88-23.41-5.41-26.75-17.87-3.04-11.34-3.45-26.18-2.89-37.85.1-1.99-.11-4.02-.02-6.02h-11.51Z"/>
    <path class="st0" d="M174.92,335.26c-6.28-5.61-5.3-12.53-1.63-19.47.35-.33.69-.66,1.04-1,.26-.2.65-.5,1.12-.87,1.48-1.17,2.44-2.06,2.65-2.2,1.8-1.14,11.05-.94,13.67-.76,1.14.08,3.7.34,4.67.61,2.73.75,6.51,7.04,6.95,9.84.64,4.12-.28,13.35-3.74,16.18-2.73,2.23-13.35,2.1-17.01,1.7-3.34-.36-5.34-1.92-7.71-4.04Z"/>
    <path class="st0" d="M323.69,309.82c4-2.93,11.73-2.63,16.78-2.2,13.33,1.15,15.18,15.9,6.72,24.02-4.55,4.37-18.46,4.81-23.29,1.19-7.94-5.95-8.38-17.03-.2-23.02Z"/>
    <path class="st0" d="M292.72,446.75c-3.3-.39-8.3.75-11.3-.44-1.28-.5-1.67-1.55-2.63-2.16-6.07-3.85-12.15-7.77-18.43-11.27l-21.82,12.69-10.57.23.48-3.61,26.85-15.85c5.38-.46,8.89-.94,13.61,1.78,7,4.03,13.93,9.5,20.99,13.55,3.09,1.77,3.77-.14,2.83,5.08Z"/>
    <path class="st0" d="M218.21,464.58c2.04-.69,7.45-.34,7.59,2.55.2,4.07-3.22,5.1-6.68,4.53-3.87-.63-3.07-6.35-.91-7.08Z"/>
    <path class="st0" d="M361.94,334.84c-.24-.2-.91-1.35-.98-1.66-1.53-7.26,10.98-6.15,9.27-.58-.9,2.94-6.26,3.89-8.3,2.24Z"/>
    <path class="st0" d="M381.31,74.19c.17.07.29.89,1.08,1.08,1.33.33,2.81-.74,3.3,1,.96,3.42-.33,10.93-.14,14.77.58.62.54,2.13.82,2.53.98,1.39,21.44,5.56,22.36,9.56.28,1.2-1.2,5.23-2.68,5.78l-16.91,2.04c.09,7.54,5.83,15.1,1.46,22.35l-18.12-4.73c-2.84-5.08-7.17-8.9-11.45-12.71-2.93.39-5.73,1.3-8.66,1.72-8.71,1.25-12.96.75-21.37-1.97-1.81-.59-4.08-1.06-5.44-2.26-.53-1.01,1.11-5.25,1.99-6.18l14.54-11.89c.23-.85-1.91-3.17-2.59-4-2.07-2.5-4.78-5.04-7.24-7.18l1.3-5.7,21.74,5.22c2.32-.32,9.71-11.07,12.13-12.89,1.22-.34,12.1,2.71,13.88,3.45Z"/>
  </g>
  <path d="M94.48,322.33"/>
</svg>