<?xml version="1.0" encoding="UTF-8"?>
<svg xmlns="http://www.w3.org/2000/svg" version="1.1" viewBox="0 0 481.7 281.1">
  <!-- Generator: Adobe Illustrator 29.3.1, SVG Export Plug-In . SVG Version: 2.1.0 Build 151)  -->
  <defs>
    <style>
      .st0 {
        fill: #abc570;
      }

      .st1 {
        fill: #0d1f22;
      }
    </style>
  </defs>
  <g id="Layer_2">
    <path d="M296.9,165.3c-6.4,4.1-12.9,8.2-19.3,12.3"/>
    <path class="st0" d="M291,171.4c-6.1,3.6-12,7.1-15.6,14-2.7,5.2-2,8-3,20.3-1.8,21.2-4.7,20.9-3.5,30.3,1.5,12,7.1,20.5,9.7,24.4,3.9,5.7,7.1,10.5,13.6,13.4,3.6,1.6,9.3,1.2,20.4.5,15.7-1,18.7-2.4,20.1-3.2,4.7-2.5,7.4-5.8,11.7-11,5.2-6.4,8.1-12.3,9.3-14.8,4.3-9.4,5.3-17.5,5.6-20.9.5-5.2,1.4-16.7-4.3-29.7-1-2.2-5.3-11.6-15-20.1-5.7-5-11.5-10.1-20.4-11.5-11.4-1.8-20.5,3.6-28.4,8.3Z"/>
  </g>
  <g id="Layer_1">
    <g>
      <path class="st1" d="M212.1,123.2c-6.3-7-12.6-13.9-18.8-21-1.7-1.9-4-4.5-5.8-6.2-.8-.7-1.5-1.3-2.1-1.3-.8,0-.7,1.5-.6,2.2,2.4,11.4,7.9,23.5,5.2,35.4-1,2.8-4.2,3-6.8,3.3-4.5.3-11.4,0-16.3-.4-4.2-.2-8.7-1.3-9.4-6.2-4.3-31.9-4.5-65.7-6.6-97.8-.4-7.5-4.2-23.5.7-29.3,2.2-.7,7.2-.1,10.1-.2,13.4-.1,27-1.4,40.3,1.4,6.3,1.6,11.9,5,17.2,9.1,12.6,9.7,18.3,22.1,14.3,37.6-2.7,11.4-13.4,21.1-23.8,26-1.3.6-1.1,1.3,0,2.3,4,4.2,7.7,9.1,11.9,13,11.4,11.5,24.9,21.9,34.2,35.6.9,2.1,3.7,7.2.4,8.1-2.3.6-4.5,1.3-6.8,1.2-7.7,0-17.3.4-24.8-.7-1.8-.4-2.4-2.1-3.4-3.4-2.1-2.5-4.8-4.5-6.9-7.1M181.4,26.4c-1.3.2-2.7.5-3.7,1.4-.6.7-.4,1-.3,2,.4,3.3.8,6.2,1.3,10.4.7,4.5,1.2,11.1,1.9,14.5,7.1,2.6,17.8-1.3,23-6.4,3.3-3.3,4.6-7.4,2-11.7-1.3-2.4-3.2-4.7-5.3-6.3-5.3-4-12.1-4.7-18.7-3.9h-.2Z"/>
      <path class="st1" d="M463,267c-26.7,22.4-74.1,13.8-82.1-21.8-6.3-20.4-8.8-42.6-8.7-63.2,0-4.8,0-9.7,0-14.8,0-2.3.4-5.3,1.9-6.5,2.3-1.9,5.7-1.1,8.5-1.2,5.9.1,12,0,17.9.7,4.2.2,8,2.8,8.1,7.3.1,17.6,0,34.9,4.1,52.3,1.5,8.3,4.8,17,13.7,19.7,9.3,3.3,15.8-1.2,19.2-9.9,4.1-15.3,3.4-39,3.2-52-.2-4.9-1.2-11.2-.9-16,0-2.6,1.9-4.2,4.4-4.3,6.1-.3,19.7,0,24.1,4.4,1.3,1.5,2,3.6,2.4,5.8,1.3,7.4,2,14.2,2.5,21.7.7,12.1.6,25.3.2,36.8,0,15.5-5.8,30.9-18.1,40.7h-.2Z"/>
      <path class="st1" d="M222.9,158.6c.6.2.9.2,1,.7,1.4,26,5.8,108.2,6.2,116,0,.8-.3.9-1.3,1.5-3.2,1.6-8.8,2.4-12.8,2.1-7,0-14.6,1-20.9-1.6-.8-.3-1.4-.8-1.4-1.7-.6-7.7-2.2-48.2-2.9-53.8-.2-.2-.5-.3-1.1-.3-1.2,0-3.7,0-6.8,0-7.8.1-17.5.3-21.7.4-.9,0-1.2.4-1.2,1.3,0,.6,0,1.4,0,2.4-.4,9.8-.8,36.2-1.5,48.8-.3.7-.9.8-1.9,1-1.8.4-4.7.6-6.9.7-5.5.2-11.6.5-17-.2-2.1-.3-4.1-.8-5.9-1.4-1.1-.4-1.2-.8-1.1-1.5.4-10.9,3.6-106.1,3.8-113,.2-1.2,2.2-1.1,4.7-1.4,6.9-.3,13.7-.2,20.3.5,1.3.2,2.6.2,3.8.7,1,.5.8,1.5.9,3.4.3,9.8.9,33.6,1.1,39.3,0,.5,0,1.2.4,1.4.4.2,1,.2,1.6.2,5.4,0,22.3,1,27.4.7.6-.2.9-.8.9-1.8.1-2.1-.1-4.6-.3-6.7-.4-7.3-.3-14.6-.4-21.9,0-2.5-.2-4.9-.4-7.5,0-3.3-1.2-8.4,2.7-9.7,1.5-.4,3.2-.4,4.8-.4,8.4,0,17.4-.4,25.7,1.5h0Z"/>
      <path class="st1" d="M103.3,10.8c2.1,6,3.5,12.9,5.1,19,1.6,5.9,3.6,11.6,5.5,17.4,8.4,24.5,16.9,49.3,25.8,73.8,1.5,4.3,4.5,8,5.3,12.5.4,7.1-9.5,5.5-14.5,5.8-4-.2-10.3.6-13.1-1.5-2.7-2.1-3.7-5.4-4.7-8.5-.9-2.8-2.5-7.5-3.8-11.6-2.9-8.9-2.3-9.7-11.8-9.3-9.4.2-18.9-1.1-28.3-.6-5.3.4-7.4.6-8.6,6.7-1.3,4.9-3.5,13-4.8,18.1-.9,4.2-2.3,5.9-5.9,6.8-4.2,1.2-9.7.8-14.7.6-5.6-.3-9.8-1.1-8.8-8.1.5-4.7,2.3-10.9,3.7-16,7.5-30,14.8-60,23.2-89.7,1.7-5.7,3.2-11.5,3.6-17.4.2-1.9.6-4.1,2.2-5.3,2.4-1.9,5.8-1.7,8.7-1.9,5.1-.3,8.3-.4,14.4-.4,6.1,0,13.6-.1,19.3,1.1M80.3,38.9c-5.6,15.2-9.4,31.6-13.9,47.3-.3,1.6-1,4.1.4,5,.9.7,4.9.2,7.5.2,8.5-.4,17.7,0,23.6-.9,2-.9.9-3.7.3-5.4-5.2-13.8-10.4-27.7-16.3-41.1"/>
      <path class="st1" d="M115.3,250.9c-.3,6.1-1,12-3,17.9-.8,2.1-1.2,4.5-2.9,5.9-1.8,1.5-4.8,1.4-7.1,1.6-20,1.1-39.1.1-59-.4-7.5-.3-15,0-22.6.2-5.9-.1-11.8.6-17.4-1.3-4.6-1.9-3.4-8.6-2-12.2,1.7-3.1,4.7-5.3,6.7-8.4,13.1-18,27.4-35.4,42.4-52.1,4.9-5.4,15.2-16.9,18-20,1.9-2.4-5.4-1.2-6.5-1.2-12.9.7-26.5.5-39.5.5-3.5,0-7.5,0-10.7-1.5-3.8-2.5-3.4-6-3.5-11,0-2.3,0-4.9.2-7.2.1-2.4,1.1-3.4,3.6-3.7,15.3-2.4,31.1-1.5,46.6-1.5,13.7.1,29.2-.2,43.3.5,4.2.5,12.8-.2,15.5,3.3,1.2,2,.9,5-.2,7.1-1.4,2.2-3.7,3.8-5.5,5.8-16.1,17.8-31.7,36.6-47.9,54.6-4.1,5.1-7.7,9.8-12.2,14.8-.8,1-2.6,2.5-2.1,3.7.5,1.1,2.7,1.3,4,1.4,15.1,1,31.1.2,46.2.4,4.8,0,9.6-.2,14.3,1"/>
      <path class="st1" d="M336.8,95.3c3,.5,5.9,1,8.9,1.2,3,.2,6.8.6,7.8,4,.9,2.4,1,6.4,2.3,9.5,1.2,3,3.7,6.3,7.2,5.8,4.2-.8,6.8-5.3,8.1-9.1,2.2-7.7,0-16.6-4.1-23.4-2.6-4.3-6.4-7.5-10.5-10.3-5.7-3.9-11.5-8.2-16.9-12.1-5.4-4-11.8-7.2-15.5-13.1-8.3-12.8-.1-28.1,11-36.5,5.9-4.9,12.9-7.4,20.5-7.5,6.5-.3,13.3,0,19.8.6,9.8.6,19.1,1.9,26.6,8.1,4.9,3.4,7.4,12.6,3.4,17-2.2,2.2-5.7,2.1-8.6,2.2-5.8-.4-11.8.3-17.4-1.2-5.1-1.4-8.2-9.1-13.8-7.4-5.8,2.5-6.5,11.6-4.2,16.9,2.6,6.5,7.9,11.2,13.2,15.5,8.1,7.3,18.1,13,25.3,21.3,5.7,5.9,8.6,13.4,10.3,21.8,2.1,10,1.1,21.1-5.7,29-3.6,4.4-8.8,8-14.1,9.9-5.2,1.9-10.8,1.8-16.2,1.9-11,.2-23,1.5-34-1.7-11-3.2-18.5-14.1-19.1-25.4-.4-8.7.2-17,10.3-17.1"/>
      <path class="st1" d="M336.8,272.6c-16.5,10.8-45.8,10.6-63.9,3.3-49.7-20.2-45.4-99.8,5.4-116.7,13.8-4.6,37.3-2.5,50.8,3,44.4,18.3,46.5,85.1,7.7,110.4ZM311.6,168c-37.6,2.6-44.5,65.9-23.7,90.1,27.8,32.2,67.1-2.6,66.3-36.2-.3-12-3.6-28.1-11.4-37.4-8.5-10.1-17.5-17.4-31.3-16.4Z"/>
      <path class="st1" d="M282.1,47.9c3.8,0,2.1,0,5.4,0s-.4-.1,2.8.2h.9c0,.1,9,0,9,0,1.7,6.5,2.4,13.4,2.8,20.1s0,17.6.7,26.3c.8,11.9,2.6,23.5,2.7,35.6s0,5.7,0,8.6c-2.3,1.8-3.7,1.1-6,1.2-4.5.2-9.5,2.3-13.5,1.1-1.3,2.5-6.5.5-8.7.4s-4.3,0-4.8-1.8l-1.1-22.5c-.6-13.1-.8-26.3-1.4-39.4-.3-7.9-2-18.2-1.5-25.9s.3-3.3.8-3.6c1.4-1,3.6,0,5.3-.2"/>
      <path class="st1" d="M289,.5c1.7,3.4,3.6,13.1,8,13.6s10.1-.3,14.4.2,1.1,0,1.4.5v2.8c.1,0-11.3,7.1-11.3,7.1-.3,1.7,5.1,8.1,6,10.3s1.1,4.3-1.9,4.3c-8.9,0-11.5-4.6-18.6-6.8s-1.2-.4-2-.4c-3.3.1-10.1,6-13.5,7.3s-6.3,0-8.8,0c-1.8-1.8,6.8-12.4,7.1-15,0-.4-2.8-1.9-3.5-2.3-2.9-1.6-7.5-2-6-6.1,4.2-.8,12.1,0,15.7-2.3s5.3-11.1,7.3-12.8,3.9-.5,5.6-.2Z"/>
      <path class="st1" d="M310.6,201c2.6-.4,8.5.6,10.7,2.1,8.6,5.7,8.5,25.4,1.7,32.4s-10,3.5-14.6,1.7c-11.5-4.5-10.7-33.9,2.3-36.1Z"/>
      <path class="st1" d="M303.8,187.6c2.7,0,7.2,7.6,5.5,8.8s-9.7-4.2-7.6-7.6c.2-.7,1.6-1.1,2.2-1.1Z"/>
      <path class="st1" d="M313.6,254.1c-.4-2.4.2-10.3,3.9-9s2.5,13-3.9,9Z"/>
      <path class="st1" d="M312.6,195.6c.5-3.1-3-8,1.1-9.7s3-.8,3.3,1.3c.4,3.1,0,9.2-4.3,8.4Z"/>
      <path class="st1" d="M289.9,220.7c1.2-.3,6.3,0,5.9,1.6-1.8,2-6.7,5.9-9.3,4s1.5-5.2,3.4-5.6Z"/>
      <path class="st1" d="M308.2,243.2c3.1-.5,1.2,7.2-.9,8.2s-4.9-.2-4-3,3.5-5,4.9-5.2Z"/>
      <path class="st1" d="M323,242.7c2.8-.4,7.2,7.7,2.2,8.5s-3.7-4-3.9-6.1.2-2.2,1.7-2.4Z"/>
      <path class="st1" d="M333.6,214c2.2-.4,5.9-.4,6.7,2.3s-1.8,3-3.4,2.9-5.3-2-5.5-2.1c-1.7-1.4.9-2.8,2.3-3Z"/>
      <path class="st1" d="M300,237.9c1.3-.2,2.2-.2,2.9,1.1-1.8,2.9-3.4,6.8-7.6,5.3-1.8-2.8,2.2-6,4.7-6.4Z"/>
      <path class="st1" d="M308.6,252.8c4.9-1.7,3.2,6.9,1.1,7.8-5.1,2.3-3.3-7.1-1.1-7.8Z"/>
      <path class="st1" d="M291.8,212.5c3.4-.8,4.5.6,6.4,3-1.7,2.1-6.2,2.7-8.3,1.2s.2-3.8,2-4.2Z"/>
      <path class="st1" d="M309.2,177.5c.9,2.5-.2,5.1,0,7.8-2.4,2.5-3.8-.5-4.1-2.9-.6-3.8-.1-5.5,4.1-4.9Z"/>
      <path class="st1" d="M322.1,190c.7-.2,2.4-.3,2.8.4,1.8,3-2.4,8.1-5.2,7.2s1.1-7.1,2.4-7.5Z"/>
      <path class="st1" d="M297.6,195.7c2.3-.5,4.8,1,6.1,2.8,3,4-6.8,2.4-7.7.5s-.1-2.9,1.6-3.3Z"/>
      <path class="st1" d="M298.7,230.2c.8,3.8-4.2,7.4-7.6,5.7-.1-3.9,4-6.5,7.6-5.7Z"/>
      <path class="st1" d="M324.1,261.3c-.4.3-1.9.1-2.5,0-2.2-.7-2.4-8.1-1-8.5,2.7-.8,5.3,7.4,3.5,8.6Z"/>
      <path class="st1" d="M290.9,182.3c3.3-1,7.7,4.3,6.6,5.7-2.5,2.4-11.2-4.3-6.6-5.7Z"/>
      <path class="st1" d="M319.3,186.5c-.5-3.7,1.1-9.1,5.8-7.9.5.3.5.9.5,1.4-.1,1.7-5,7.8-6.2,6.5Z"/>
      <path class="st1" d="M299.6,209.5c-2.1,1.2-8.4-.6-7.6-3.5,1.1-4.2,8.4-.5,7.6,3.5Z"/>
      <path class="st1" d="M336,222.1c6.1-.7,4.5,5.3.4,4.7s-5-1.4-5.1-1.7c-.6-1.8,3.5-2.9,4.7-3Z"/>
      <path class="st1" d="M332.7,242.1c-2,2-7.2-2.4-7.1-3.4.3-1.9,6.9-1.9,7.6.5s0,2.3-.5,2.9Z"/>
      <path class="st1" d="M329.3,196.7c2.3-.2,3.6,1,2.9,3.4s-6.4.7-8.1-.4c-.3-1.4,4.1-2.9,5.2-3Z"/>
      <path class="st1" d="M328.9,207.6c-1.2-1.8,3.4-2.8,4.6-2.9,5.1-.1,4.2,5.9-.8,4.6s-3.7-1.6-3.8-1.7Z"/>
      <path class="st1" d="M288.8,232.3c-1.2,1.4-3.5,4.6-5.8,2.6-3.4-2.9,7-7,7.5-4.4s-1.3,1.3-1.7,1.8Z"/>
      <path class="st1" d="M329.9,231.6l.2-1.5.6-.4c1.5,0,6.5.3,7.1,1.4.6,1.2.4,3.3-1.1,3.8-2.8.8-3.9-3.5-6.9-3.3Z"/>
      <path class="st1" d="M294.9,254.2c-.6-3.4,2.2-7.2,5.8-7,1.3.9-1.9,6.5-3.2,6.9s-1.7,0-2.5.1Z"/>
      <path class="st1" d="M286.1,196.2c2.2-.7,6.3.2,7.3,2.5-2.1,3.9-12.7-.9-7.3-2.5Z"/>
      <path class="st1" d="M327.5,194.2c1.4-3.1,4.6-7.2,8.1-4,.9,2.7-6,4.7-8.1,4Z"/>
      <path class="st1" d="M285.2,207.7c1.2-.2,4.8.5,4.4,2.1s-3.4,2-4.1,2.2c-4.8,1.4-5.5-3.5-.4-4.3Z"/>
      <path class="st1" d="M293.4,239.3c-.5,3.3-2.9,7.5-6.7,5.7.3-3.4,3.2-6.4,6.7-5.7Z"/>
      <path class="st1" d="M287.2,217.7c.6.9-3.2,4.1-4,4.4s-2.5.7-3.5,0c-1.8-2.5,5.2-6.2,7.5-4.3Z"/>
      <path class="st1" d="M330.2,245.6c2.9-.9,7.4,4.1,4.5,6s-6.7-5.2-4.5-6Z"/>
      <path class="st1" d="M341.8,208.7c1.8-.3,5.3.7,4.2,2.8-1.5,3-12.8-1.5-4.2-2.8Z"/>
      <path class="st1" d="M339.5,228.3c2.6-1,7.6,1.4,5.3,4.6s-5.7-4-5.3-4.6Z"/>
      <path class="st1" d="M337.4,200.1c4.3-1,7.3,2.7,4.1,3.6s-8.8-2.6-4.1-3.6Z"/>
      <path class="st1" d="M336.9,236.9c1.7-.4,7.1,1.6,5,4.6s-7.8-3.8-5-4.6Z"/>
      <path class="st1" d="M342.2,219.2c1.8-.6,6.8,1.1,5.7,3.3l-1.5,1-5.5-3.1c.4-.4.7-.9,1.3-1.1Z"/>
    </g>
  </g>
</svg>